<?xml version="1.0" encoding="utf-8"?>
<!-- Generator: Adobe Illustrator 26.0.2, SVG Export Plug-In . SVG Version: 6.00 Build 0)  -->
<svg version="1.1" id="Warstwa_1" xmlns="http://www.w3.org/2000/svg" xmlns:xlink="http://www.w3.org/1999/xlink" x="0px" y="0px"
	 viewBox="0 0 220 230" style="enable-background:new 0 0 220 230;" xml:space="preserve">
<style type="text/css">
	.st0{clip-path:url(#SVGID_00000127002241275977728880000005535938082875125937_);}
</style>
<g>
	<defs>
		<rect id="SVGID_1_" x="11" y="8" width="197.2" height="214"/>
	</defs>
	<clipPath id="SVGID_00000067935665513048199690000009278075472874244531_">
		<use xlink:href="#SVGID_1_"  style="overflow:visible;"/>
	</clipPath>
	<g style="clip-path:url(#SVGID_00000067935665513048199690000009278075472874244531_);">
		<path d="M51.4,38.8c1.4,1.2,3,2.6,5.2,2.6c0.2,0,0.4,0,0.7,0h0.5c0.6,0,1.1-0.1,1.6-0.4c0.5-0.2,1-0.6,1.4-1c1.3-1.4,2.3-3,3-4.8
			c0.1-0.2,0.1-0.4,0.1-0.6c0-0.2,0-0.4-0.1-0.7c-0.1-0.2-0.2-0.4-0.4-0.5c-0.2-0.2-0.3-0.3-0.6-0.4c-0.8-0.4-1.6-0.7-2.4-0.9
			c-1.1-0.4-2.4-0.7-3.6-1c-0.2,0-0.3,0-0.5,0c-0.2,0-0.3,0.1-0.4,0.2c-0.1,0.1-0.3,0.3-0.3,0.4c-0.1,0.2-0.1,0.4-0.1,0.5
			c0,0.2,0,0.4,0.1,0.6c0.1,0.2,0.2,0.3,0.3,0.5c0.3,0.4,0.8,0.8,1.2,1.1c0.7,0.4,1.4,0.7,2.2,1c0.3,0.1,0.3,0.1,0.2,0.4
			c-0.2,0.4-0.5,0.8-0.9,1.1l-0.2,0.2c-1.3,1.2-2.2,1.2-3.6,0.3c-0.2-0.2-0.4-0.4-0.6-0.6c-0.2-0.2-0.4-0.4-0.6-0.6
			c-0.8-0.6-1.4-1.5-1.6-2.5c-0.2-1-0.1-2,0.3-3c1-2.3,3-4,6-4.9c0.4-0.1,0.8-0.1,1.2,0c0.6,0.2,1.2,0.5,1.8,0.8l0.9,0.4l0.2,0.1
			c0.3,0.2,0.7,0.3,1,0.3c0.8,0.1,1.2-0.5,1.4-1s-0.2-1-0.3-1.1c-0.2-0.2-0.4-0.4-0.6-0.6l-0.3-0.3c-1.1-1.1-2.5-1.8-4.1-2
			c-1-0.1-2.1,0-3.1,0.3c-0.9,0.2-1.7,0.6-2.5,1c-0.9,0.5-1.7,1.2-2.4,2.1c-0.2,0.3-0.4,0.6-0.7,0.8c-0.5,0.6-0.9,1.2-1.3,1.8
			c-0.8,1.3-1.2,2.8-1.1,4.4c0,1,0.2,2,0.6,2.9C49.6,36.9,50.4,37.9,51.4,38.8z"/>
		<path d="M92.6,58.1c-0.3-0.1-0.6-0.3-0.8-0.5c-0.7-0.4-1.3-0.7-2-1c-0.2-0.1-0.5-0.2-0.8-0.2c-0.3,0-0.5,0-0.8,0.1
			c-0.3,0.1-0.5,0.3-0.6,0.6s-0.3,0.5-0.4,0.8c0,0.2-0.1,0.3-0.1,0.5l-1.1,5l-1.3,6.3c-0.2,0.5-0.2,1,0,1.5c0.2,0.5,0.6,0.9,1.1,1.1
			c0.3,0.1,0.6,0.2,0.9,0.2h0.3l4,0.5h0H91l0.7-0.2c0.7-0.1,1.4-0.4,2-0.6c1.4-0.5,2.5-1.4,3.3-2.7c1.3-2.3,1.2-4.7-0.4-7.7
			C95.8,60.1,94.3,58.8,92.6,58.1z M88.3,68.9c0,0-0.1-0.1-0.1-0.2c0.3-1.9,0.7-4.4,1.2-6.9c0.1-0.4,0.2-0.8,0.3-1.1l0.1-0.3
			c1,0.4,1.9,1.1,2.7,1.9c0.8,0.8,1.3,1.7,1.7,2.8c0.1,0.4,0.2,0.8,0.1,1.3c-0.1,0.4-0.2,0.8-0.5,1.2c-0.3,0.4-0.6,0.8-1.1,1
			c-0.4,0.3-0.9,0.4-1.4,0.5c-0.9,0-1.7,0-2.6-0.1L88.3,68.9z"/>
		<path d="M85.2,38.5c0-0.5-0.1-0.9-0.3-1.3c-0.3-0.4-0.7-0.6-1.1-0.7l-0.6-0.1c-0.4-0.1-0.8-0.2-1.2-0.3c-0.4-0.1-0.8-0.3-1.3-0.5
			s-0.9-0.3-1.3-0.5C79.1,35.1,79,35,79,35c0-0.1,0-0.3,0.1-0.4c0.2-0.3,0.3-0.7,0.4-1.1c0-0.2,0.1-0.3,0.1-0.5
			c0.2,0,0.3,0.1,0.5,0.1l0.2,0.1c0.1,0,0.2,0.1,0.3,0.1l4.3,1.1l1.3,0.3l0.1-0.2h0.2c0.3,0,0.6-0.1,0.9-0.3
			c0.3-0.2,0.5-0.4,0.6-0.7c0.1-0.2,0.2-0.3,0.2-0.5c0-0.2,0-0.4,0-0.5c0-0.2-0.1-0.3-0.2-0.5c-0.1-0.1-0.2-0.3-0.4-0.3l-0.1-0.1
			c-0.4-0.3-0.9-0.5-1.4-0.7c-1-0.3-2-0.6-3.3-0.9l-0.8-0.2c-0.9-0.3-1.8-0.4-2.8-0.4h-0.5c-1.1,0-1.5,0-1.9,1.6
			c-0.2,0.7-0.4,1.4-0.6,2.2l-0.4,1.5c-0.2,0.8-0.4,1.5-0.6,2.3l-0.2,0.5c-0.3,1.2-0.7,2.5-1,3.7c-0.3,1.3-0.6,2.5-0.8,3.9
			c-0.1,0.6,0.1,1.4,1.4,1.8c0.1,0,0.3,0.1,0.4,0.1c0.3,0,0.6-0.1,0.8-0.3c0.2-0.2,0.4-0.4,0.5-0.7c0.2-0.3,0.3-0.5,0.4-0.8
			c0.4-1.8,0.9-4,1.4-6.2c0-0.1,0.1-0.2,0.2-0.3c0.1,0,0.2,0,0.3,0l1,0.2c1.1,0.3,2.2,0.5,3.3,0.7c0.6,0.1,1.3,0,1.9-0.2
			c0.2-0.1,0.3-0.2,0.5-0.4C85.1,38.9,85.1,38.7,85.2,38.5z"/>
		<path d="M55.7,57.7c-0.2-0.3-0.6-0.5-0.9-0.7c-0.3-0.1-0.7-0.2-1.1-0.2c-0.1,0-0.2,0.1-0.3,0.2c-0.4,0.4-0.9,0.7-1.4,0.9
			c-0.5,0.2-1.1,0.3-1.6,0.3c-0.6,0.1-1.1,0-1.6-0.2c-1.2-0.7-2.6-3.5-2-5c0.3-0.8,0.7-1.5,1.2-2.1c0.5-0.7,1.3-1.2,2.1-1.5
			c0.8-0.3,1.7-0.2,2.6,0c1,0.5,1.9,1.1,2.6,2c0.2,0.3,0.5,0.4,0.9,0.5c0.3,0.1,0.7,0,1-0.2c0.2-0.1,0.5-0.3,0.6-0.5
			c0.2-0.2,0.3-0.5,0.4-0.7c0.1-0.3,0.1-0.6,0-1c-0.1-0.3-0.2-0.6-0.4-0.9c-0.7-0.9-1.5-1.6-2.5-2.2c-1.4-1-3.2-1.5-4.9-1.2
			c-1.7,0.2-3.3,1.1-4.4,2.5c-0.6,0.7-1.1,1.5-1.7,2.2c-0.3,0.4-0.5,0.9-0.6,1.4c-0.2,1.1-0.3,2.1-0.3,3.2v0.2
			c-0.1,0.9,0.2,1.9,0.7,2.7l0.3,0.3c0.8,0.9,1.5,1.8,2.4,2.6c0.7,0.8,1.7,1.3,2.8,1.3c0.3,0,0.6,0,0.8-0.1c2.1,0.1,3.6-1.1,5-2.3
			c0.3-0.2,0.5-0.5,0.5-0.8S55.9,58,55.7,57.7z"/>
		<path d="M80.9,54.3c-2-0.8-3.5-1.4-4.9-2c-0.2-0.1-0.4-0.2-0.6-0.2c-0.2,0-0.4,0-0.6,0.1c-0.3,0.2-0.4,0.5-0.6,1l-2,8.5
			c-0.3,1.3-0.6,2.7-1,4c-0.1,0.3-0.1,0.6,0,0.8c0,0.3,0.2,0.5,0.3,0.8c0.1,0.1,0.2,0.2,0.3,0.3c0.1,0.1,0.3,0.1,0.4,0.1h0.5
			c0.3,0,0.6,0.1,0.9,0.1c0.1,0,0.3-0.1,0.4-0.2c0.1-0.1,0.2-0.2,0.3-0.4c0.2-0.5,0.3-1.1,0.4-1.6l0.1-0.6l0.3-1.2
			c0.1-0.6,0.3-1.2,0.4-1.7c0-0.1,0.1-0.1,0.2-0.2c0.4,0,0.8,0,1.2,0.1c0.1,0.1,0.3,0.2,0.3,0.3c0.2,1.2,0.3,2.5,0.5,3.7l0.1,0.6
			h-0.1v0.2c0,0.2,0.1,0.4,0.1,0.6c0.1,0.5,0.2,1,0.3,1.5c0.1,0.4,0.3,0.7,0.6,0.9s0.7,0.4,1.1,0.4c0.1,0,0.2,0,0.3,0
			c0.6-0.2,1-0.9,0.9-1.9c-0.2-1.8-0.4-3.7-0.7-5.5v0.1c-0.1-0.6-0.1-0.6,0.5-0.8c0.9-0.2,1.6-0.8,2.1-1.6c0.5-0.8,0.6-1.7,0.4-2.6
			c-0.1-0.8-0.3-1.5-0.8-2.1C82.1,55.2,81.6,54.7,80.9,54.3z M80.8,59.1c-0.2,0.5-0.7,0.8-1.5,0.8c-0.6,0-1.3-0.1-1.9-0.2l-0.8-0.1
			c-0.1,0-0.1,0-0.2,0c0,0-0.1-0.1-0.1-0.1c0-0.1,0-0.2,0-0.4c0.2-0.9,0.4-1.9,0.6-2.8l0.2-1.1c1.2,0.2,2.3,0.8,3.2,1.5
			c0.3,0.3,0.4,0.7,0.5,1.1C80.9,58.3,80.9,58.7,80.8,59.1z"/>
		<path d="M69.3,55.1c0.1-1.4-0.2-2.7-0.8-3.9c-0.1-0.3-0.3-0.5-0.5-0.7c-0.2-0.2-0.5-0.3-0.8-0.3c-0.3,0-0.6,0-0.8,0.1
			c-0.3,0.1-0.5,0.3-0.7,0.5c-1.2,1.2-2.4,2.4-3.6,3.7l-2.6,2.7c-1.2,1.2-2.4,2.5-3.7,3.7c-0.2,0.2-0.3,0.4-0.4,0.7
			c-0.1,0.3,0,0.5,0.1,0.8c0.1,0.3,0.4,0.6,0.6,0.8c0.3,0.2,0.6,0.4,0.9,0.4c0.4,0.1,0.7,0.1,1.1,0c0.3-0.1,0.7-0.3,0.9-0.5
			c0.2-0.2,0.4-0.4,0.5-0.6l0.1-0.2c0.6-0.8,1.2-1.6,1.8-2.3c0.2-0.3,0.3-0.3,0.5-0.2c1.4,0.7,2.9,1.2,4.4,1.5v0.6c0,0.5,0,1,0,1.5
			c0,0.7,0,1.4,0.1,2.2c0,0.3,0.1,0.5,0.3,0.7c0.2,0.2,0.4,0.3,0.7,0.4h0.2c0.2,0,0.3,0,0.5-0.1c0.2-0.1,0.3-0.2,0.4-0.3
			c0.2-0.5,0.4-1.1,0.4-1.7c0.1-2,0.2-4,0.3-5.9v-0.9c0-0.6,0-1.3,0-2L69.3,55.1z M66.2,54.8c0,0.4,0,0.7,0,1.1s0,0.9,0,1.4
			c0,0.1,0,0.1,0,0.2v0.1c0,0.2,0,0.5-0.1,0.7c-0.2,0-0.5,0-0.7-0.1c-0.4-0.1-0.9-0.2-1.4-0.4l-0.4-0.1l1.4-1.6L66.2,54.8z"/>
		<path d="M100,35l-0.6-0.3c-0.4-0.2-0.8-0.4-1.3-0.6c-0.6-0.2-1.2-0.4-1.8-0.6l-0.9-0.3l-1.5-0.5c-1-0.3-2-0.6-3-0.9
			c-0.4-0.1-0.9,0-1.2,0.1c-0.4,0.2-0.7,0.5-1,0.8c-0.1,0.2-0.1,0.4-0.1,0.6c0,0.2,0,0.4,0.1,0.6c0.3,0.5,0.7,0.8,1.2,1
			c0.7,0.2,1.3,0.4,1.9,0.6c0.2,0,0.4,0.1,0.5,0.2c0,0.2,0,0.4-0.1,0.5c-0.1,0.3-0.2,0.6-0.3,0.9c-0.1,0.3-0.2,0.6-0.3,1
			c-0.1,0.4-0.2,0.8-0.3,1.2c-0.1,0.8-0.4,1.5-0.6,2.2c-0.9,2.2-1.6,4.5-2,6.8l-0.1,0.5c-0.1,0.3-0.1,1,0.3,1.2
			c0.5,0.3,1.1,0.6,1.7,0.7H91c0.4,0,0.8-0.3,0.9-0.8l0.5-1.5c0.4-1.2,0.8-2.4,1.1-3.6c0.6-2.2,1.1-4.4,1.7-6.5l0.1-0.6
			c0-0.2,0.1-0.4,0.2-0.6c0.2,0,0.4,0.1,0.6,0.1c0.6,0.2,1.3,0.4,1.9,0.6l0.8,0.2h0.2l0.1-0.1c0.2,0,0.4-0.1,0.6-0.1
			c0.2,0,0.3-0.1,0.5-0.1c0.1-0.1,0.3-0.2,0.4-0.3c0.1-0.1,0.2-0.3,0.2-0.4c0-0.2,0.1-0.3,0-0.5c0-0.3-0.1-0.6-0.2-0.8
			C100.5,35.4,100.3,35.2,100,35z"/>
		<path d="M72,28.6c0-0.1,0-0.1,0-0.2c0-0.4-0.1-0.8-0.3-1.1c-0.2-0.3-0.5-0.6-0.8-0.7c-0.2-0.1-0.4-0.1-0.7,0
			c-0.2,0-0.4,0.1-0.6,0.3c-0.4,0.3-0.6,0.7-0.7,1.2c-0.3,1.2-0.6,2.6-1,4.4c-0.1,0.5-0.2,1-0.3,1.5c-0.1,0.8-0.3,1.6-0.5,2.4
			c-0.7,2.3-1,4.6-1.1,6.9c0,0.2,0,0.4,0.1,0.6c0.1,0.2,0.2,0.3,0.4,0.4c0.3,0.3,0.7,0.4,1.1,0.4h0.2c1.2-0.2,1.4-1.2,1.6-2
			c0.5-2.4,1.2-5.5,1.9-8.8c0.2-1.2,0.4-2.5,0.6-3.7C71.9,29.7,71.9,29.2,72,28.6z"/>
		<path d="M208,111.6c-0.3-1.8-1.1-3.5-2.2-4.8c-1-1-2.2-1.8-3.5-2.3c-0.5-0.2-1.1-0.5-1.6-0.8c-0.2-0.1-0.3-0.1-0.5-0.1
			c-2.4-0.3-4.8,0.3-6.8,1.6c-2.7,1.7-5,3.9-6.9,6.5c-0.1,0.2-0.3,0.4-0.5,0.6l-0.1,0.1v-0.9c-0.1-1.2-0.1-2.4-0.2-3.7
			c0-0.7,0-1.5,0-2.2s0-1.5,0-2.2c0-0.5-0.1-1-0.1-1.5c0-0.8-0.1-1.6-0.1-2.4c0-2.3,0.3-4.5,0.9-6.8c0.5-1.9,0.8-3.8,1.1-5.6
			c0.1-0.5,0.2-0.9,0.2-1.4c0.7-3.9,0.9-7.2,0.1-10.6c-0.3-1.6-1.1-3.1-2.3-4.2c-0.7-0.6-1.5-1-2.3-1.4l-0.2-0.1
			c-2-1-4.2-1.4-6.5-1.4c-3.2-0.1-6.1,1.3-8.7,4.5c-1.4,1.7-2.5,3.6-3.3,5.7c-0.5,1.1-1,2.2-1.4,3.4c-0.4,0.9-0.7,1.8-1.1,2.6
			l-0.1,0.2c0-0.1,0-0.1,0-0.2c-0.1-0.8-0.3-1.5-0.4-2.3l-0.4-2c-0.2-0.9-0.3-1.9-0.5-2.8c-0.4-2.2-0.8-4.6-1.2-6.9
			c-0.2-1.3-0.6-2.6-1.3-3.8c-0.6-1.1-1.5-1.9-2.7-2.3c-1.9-0.6-4-0.9-6-0.7c-0.3,0-0.6,0.1-0.9,0.2l-0.5,0.2
			c-0.8,0.4-1.7,0.8-2.4,1.2c-1,0.6-1.9,1.2-2.7,2c-0.7,0.7-1.4,1.4-1.9,2.2l-0.1,0.2c-1.5,1.8-2.5,4-3.2,6.2c-0.7,2.8-1,5.6-1,8.5
			c-0.1,3-0.1,5.6,0,8.2c0.2,2.5,0.6,4.9,1.3,7.3c0.2,0.8,0.4,1.6,0.6,2.4l0.3,1.4l-0.3-0.2c-0.4-0.3-0.8-0.6-1.2-1
			c-2.9-2.6-6.1-5.1-9.3-7.3l1.4-6c0.2-0.8,0.4-1.6,0.6-2.3c0.2-0.6,0.3-1.2,0.5-1.8c0.2-0.8,0.4-1.6,0.6-2.5s0.4-1.7,0.6-2.6
			c0.6-2.3,1.2-4.5,1.8-6.8v-0.1c0.7-2.4,1.3-4.7,1.9-7l0.7-2.5c0.6-2,1.2-4.1,1.7-6.1c0.2-0.9,0.4-1.8,0.6-2.7l0.2-0.9
			c0.1-0.5,0.2-1.1,0.3-1.6c0.3-1.3,0.6-2.6,0.8-4c0.3-2,0.4-4.1,0.5-5.8c0.2-1.7,0.1-3.4-0.3-5.1c-0.4-1.2-0.8-2.3-1.4-3.4
			c-0.5-0.9-1-1.7-1.6-2.5l-0.1-0.2c-0.6-0.8-1.2-1.6-1.9-2.3l-0.2-0.2c-0.5-0.6-1.1-1.2-1.8-1.7c-2.7-1.8-5.7-3-8.9-3.5
			c-1.5-0.3-3-0.6-4.4-1l-1-0.2c-1.7-0.4-3.5-0.8-5.3-1.2l-4.8-1.2l-4.4-1l-2.5-0.6c-2.3-0.6-4.7-1.2-7-1.7
			c-0.9-0.2-1.8-0.4-2.8-0.6c-0.9-0.2-1.8-0.4-2.7-0.6l-5.2-1.3l-5.8-1.4L77,11.9c-0.4-0.1-0.8-0.2-1.3-0.3l-1.6-0.4
			c-0.8-0.2-1.6-0.4-2.4-0.6c-1-0.2-2-0.4-3-0.6l-2.5-0.4c-0.5-0.1-0.9-0.2-1.3-0.3c-0.8-0.2-1.5-0.4-2.3-0.5
			c-2.5-0.4-5-0.7-7.5-0.9c-1.3-0.1-2.5,0-3.8,0.2h-0.1c-1.6,0.2-3.2,0.9-4.5,1.9c-1,0.7-1.9,1.4-2.8,2.2c-0.4,0.4-0.8,0.9-1.2,1.3
			c-0.2,0.3-0.4,0.5-0.6,0.8c-1.3,1.5-2.3,3.3-2.9,5.2c-0.8,2-1.5,4-2,5.8c-0.8,2.4-1.5,4.6-2.2,7c-0.5,1.7-0.9,3.5-1.3,5.2
			c-0.3,1.3-0.6,2.7-1,4c-0.9,3.6-1.9,7.4-3,11.2c-0.3,1-0.6,2.1-1,3.1c-0.4,1-0.6,1.9-0.9,2.9c-0.8,2.9-1.6,5.9-2.4,8.7L25,69.2
			l-1.1,4.3c-0.4,1.4-0.8,2.8-1.1,4.3c-0.3,1-0.5,2-0.8,3c-0.6,2-1.1,4.1-1.7,6.2c-0.5,2.1-1,4.3-1.5,6.4l-0.5,2.3l-0.2,1
			c-0.3,1.2-0.6,2.4-0.8,3.6c-0.1,0.5-0.2,0.9-0.2,1.4c0,0.4-0.1,0.8-0.1,1.2c-0.4,2.2-0.9,5.1-1.4,8c-0.2,1.3-0.5,2.7-0.8,4
			c-0.2,1-0.4,2.1-0.6,3.1c-0.4,2-0.9,4.7-1.4,7.4c-0.3,1.9-0.7,3.8-0.9,5.7c-0.2,1.7-0.5,3.7-0.6,5.6c-0.1,2.7,0.3,5.4,1.3,8
			c0.2,0.6,0.5,1.2,0.8,1.8c1.3,2,2.8,3.7,4.6,5.1c1.6,1.4,3.4,2.7,5.3,3.7c2.8,1.5,5.7,2.6,8.8,3.3c1.4,0.4,2.9,0.8,4.5,1.3
			c0.5,0.1,0.9,0.3,1.4,0.5c0.5,0.2,0.9,0.3,1.3,0.4l3.3,1l3.5,1l1.5,0.5c1,0.3,2.1,0.6,3.1,0.9c1.6,0.4,3.2,0.8,4.8,1.1l3.4,0.8
			c0.8,0.2,1.7,0.4,2.5,0.6c1.1,0.3,2.2,0.6,3.3,0.8c1.1,0.2,2.2,0.5,3.2,0.7c1.3,0.3,2.7,0.5,4,0.9c0.8,0.2,1.7,0.5,2.5,0.7
			s1.7,0.5,2.5,0.7c1.7,0.4,7,1.4,11.5,2.3l0.1,0.3c0.1,0.7,0.3,1.5,0.4,2.2c0.2,1,0.4,1.9,0.6,2.9c0.3,1.2,0.5,2.5,0.7,3.7
			s0.4,2.2,0.5,3.3c0.1,0.7,0.2,1.5,0.3,2.2c0.3,1.7,0.5,3.4,0.8,5l0.5,3.1l0.2,1.3c0.1,0.9,0.3,1.7,0.4,2.6
			c0.4,2.1,0.7,4.2,1.1,6.2l0.4,2.6c0.2,1.1,0.4,2.2,0.6,3.3c0.1,0.3,0.1,0.7,0.2,1c0.1,0.3,0.2,0.7,0.2,1.1c0,0.2,0.1,0.5,0.3,0.7
			c0.1,0.2,0.3,0.4,0.5,0.5c0.2,0.1,0.4,0.2,0.6,0.2s0.5,0,0.7,0c0.1,0,0.3-0.1,0.4-0.1c0.5-0.1,1-0.3,1.3-0.8
			c0.3-0.4,0.4-1,0.3-1.5c-0.2-1-0.3-1.9-0.4-2.9l-0.1-0.8c-0.1-0.6-0.2-1.1-0.2-1.6c-0.2-1.1-0.3-2.2-0.5-3.3
			c-0.2-1.1-0.5-2.5-0.7-3.7c-0.2-1.2-0.5-2.4-0.7-3.6c-0.3-1.6-0.5-3.2-0.8-4.9c-0.2-1.4-0.4-2.7-0.7-4.1c-0.5-2.9-1.1-5.9-1.7-9.4
			c-0.2-1-0.4-1.9-0.6-2.8c-0.2-0.9-0.4-2.1-0.6-3.1c-0.3-1.6-0.6-3.3-0.8-4.9c-0.2-1.4-0.4-2.8-0.7-4.2c-0.2-1.1-0.4-2.2-0.6-3.3
			c-0.2-1.3-0.5-2.6-0.7-3.9c-0.2-1.5-0.5-3-0.7-4.5c-0.2-1.5-0.5-3.1-0.8-4.7c-0.1-0.7-0.2-1.4-0.4-2c-0.1-0.4-0.2-0.9-0.3-1.3
			c-0.3-1.4-0.5-2.9-0.8-4.3c-0.3-1.7-0.6-3.5-0.9-5.2c-0.1-0.8-0.2-1.6-0.3-2.4v-0.1c-0.1-0.6-0.1-1.2-0.2-1.8l-0.1-0.8h0.1
			c0.1,0,0.3,0,0.4,0.1c0.6,0.4,1.3,0.6,2.1,0.5c0.7,0,1.4-0.1,2.1-0.2l0.5-0.1c0.8-0.1,1.5-0.4,2.1-0.9c0.2-0.2,0.5-0.4,0.7-0.7
			l0.4-0.3l0.1-0.1c0.1-0.1,0.3-0.3,0.4-0.4c1.4-2.9,2.7-6.4,2.2-10.5c-0.2-2.6-1.2-5-2.8-7.1c-0.5-0.7-1.1-1.2-1.8-1.7
			c-1.4-0.9-3.2-1.4-4.9-1.2c-0.1,0-0.2,0-0.3-0.1c0-0.1,0.1-0.2,0.1-0.3c0.1-0.1,0.2-0.2,0.3-0.3l0.1-0.1c0.7-0.5,1.5-0.7,2.3-0.7
			c1-0.2,2-0.1,2.9,0.2c0.9,0.3,1.8,0.8,2.5,1.4c0.9,0.9,1.7,2,2.3,3.1l0.3,0.5c1.6,2.7,3,5.5,4,8.5c0.2,0.6,0.5,1.2,0.7,1.9
			c1.7,4.6,3,9.2,4,14c0.2,0.8,0.4,1.6,0.6,2.4c0.2,0.8,0.3,1.3,0.4,1.9s0.3,1.4,0.4,2.1c0.1,0.7,0.3,1.7,0.5,2.5
			c0.5,2,1,4.1,1.6,6.5l0.2,0.7c0.3,1.1,0.6,2.2,0.9,3.3c0.2,0.5,0.4,1,0.7,1.5c0.1,0.2,0.2,0.4,0.3,0.7s0.2,0.4,0.3,0.7
			c0.2,0.5,0.5,1.1,0.8,1.6c1.3,2.1,3.3,3.6,5.7,4.3c0.8,0.3,1.7,0.3,2.5,0.1c0.8-0.2,1.5-0.7,2.1-1.3c0.2-0.3,0.5-0.7,0.7-1
			l0.2-0.3c1.1-1.7,1.9-3.5,2.6-5.3c0.5-1.6,1-3.1,1.5-4.7c0.2-0.5,0.3-0.9,0.5-1.4c0.3-0.7,0.5-1.5,0.8-2.2s0.4-1.5,0.5-2.2
			c0.1-0.3,0.1-0.7,0.2-1l0.3-1.4c0.3-1.1,0.5-2.2,0.7-3.3c0.3-1.2,0.2-2.4-0.2-3.5c-0.1-0.1-0.1-0.2-0.2-0.4
			c-0.1-0.3-0.3-0.6-0.4-0.9c-0.5-1.8-1.3-3.4-2.4-4.9c-1.3-1.8-2.6-3.5-3.8-5.2c-0.7-1-1.4-2.1-1.9-3l0.2-0.8
			c0.2-0.8,0.3-1.5,0.5-2.3l0.9-4.8c0.2-0.9,0.3-1.8,0.5-2.8c0.3-1.7,0.6-3.4,1-5.1c0.4-1.7,0.8-3.4,1.2-5.1v-0.2
			c0.7,0.5,2,1.5,3.4,2.4c1.6,1.1,3.2,2.3,4,2.9l0.8,0.6c1,0.7,2,1.5,3,2.2c1.6,1.3,3.2,2.7,4.4,3.8l0.7,0.7
			c1.2,1.1,2.6,2.3,3.8,3.5c1.7,1.7,2.9,3.7,3.6,6c0.4,1.5,0.7,3,0.8,4.6c0.3,2.6,0.4,5.2,0.4,7.8c0,2.2-0.2,4.5-0.3,6.6
			c-0.1,1.1-0.2,2.1-0.2,3.2v0.6c0,0.2,0,0.5,0,0.7l-0.1,0.9c-0.2,1.8-0.4,3.8-0.6,5.6c-0.2,1.6-0.4,3.3-0.7,4.8l-0.4,2.8
			c-0.1,1.2-0.3,2.3-0.4,3.6c0,0.2,0,0.3,0.1,0.5c0.3,0.4,0.6,0.6,1,0.8c0.4,0.2,0.8,0.3,1.3,0.3c0.4,0,0.9-0.2,1.2-0.5
			c0.3-0.3,0.6-0.7,0.7-1.1l0.3-1.7c0.2-1.1,0.4-2.2,0.6-3.3c0.4-2.4,0.7-4.8,1-7.3c0.5-4.9,1-10,1.5-15.9c0.1-1.6,0.2-3.3,0.1-4.9
			c0-0.7-0.1-1.3-0.2-2s-0.1-1.2-0.2-1.8c-0.1-1.9-0.6-3.8-1.3-5.6c-0.9-2.2-2.1-4.2-3.8-5.9c-1.2-1.3-2.5-2.6-3.8-3.8l-1.3-1.3
			c-0.2-0.2-0.4-0.4-0.7-0.6c-0.4-0.3-0.7-0.6-0.9-1c-0.5-1.1-0.9-2.3-1.1-3.5c-0.4-1.8-0.7-3.7-1.1-5.5c-0.2-1.1-0.4-2.2-0.6-3.3
			c-0.5-2.5-0.7-5-0.7-7.5c0-1.3,0.2-2.6,0.3-3.9c0.1-1.3,0.2-2.4,0.3-3.7c0.1-2.5,0.7-4.9,1.8-7.1c0.5-0.9,1.1-1.8,1.8-2.6
			c0.2-0.3,0.4-0.5,0.6-0.8c1-1.3,2.2-2.3,3.7-2.9c0.8-0.3,1.7-0.3,2.6-0.1h0.1l-0.3,0.2c-0.7,0.4-1.4,0.7-2.1,1
			c-1.5,0.7-2.8,1.9-3.5,3.4c-0.8,1.5-1.3,3.1-1.2,4.8c0,1.3,0.2,2.7,0.8,3.9c0.6,1.2,1.4,2.3,2.4,3.2c1.1,1.1,2.5,1.8,4,2.2
			c1.5,0.4,3.1,0.3,4.6-0.2c0.1,0,0.2,0,0.4,0c0.1,0.1,0.1,0.2,0.1,0.3l0.1,0.4c0.1,0.7,0.2,1.5,0.4,2.2c0.2,0.7,0.4,1.6,0.6,2.4
			c0.2,0.7,0.3,1.3,0.5,2c0.6,2.4,1.1,4.8,1.6,7.1l0.2,0.7c0.1,0.3,0.1,0.7,0.2,1c0.1,0.3,0.1,0.6,0.2,0.9c0.2,0.8,0.4,1.6,0.5,2.4
			c0.2,0.8,0.4,1.6,0.5,2.4c0.2,0.8,0.3,1.4,0.4,2.1c0.2,0.7,0.3,1.5,0.5,2.3c0.2,0.9,0.4,1.9,0.7,2.8c0.3,1.2,0.6,2.5,0.9,3.7
			c0.1,0.6,0.2,1.2,0.3,1.8l0.1,2.6c0.1,1.2,0.1,2.4,0.2,3.6c0.1,0.7,0.1,1.3,0.2,2c0.1,0.8,0.2,1.7,0.3,2.5
			c0.1,1.9,0.1,3.7,0.1,5.4c0,3.3-0.2,6.6-0.7,9.9c-0.4,2.1-0.7,4.3-1.1,6.5c-0.2,1.1-0.3,2.3-0.5,3.4c-0.1,0.8-0.2,1.6-0.3,2.4
			c-0.1,0.4-0.2,0.8-0.3,1.2v0.2c-0.1,0.2-0.1,0.4-0.2,0.6c-0.1,0.4-0.2,0.7-0.3,1.1c0,0.3,0.1,0.6,0.2,0.9c0.1,0.2,0.2,0.3,0.4,0.4
			c0.2,0.1,0.4,0.1,0.6,0c0.1,0,0.2,0,0.3,0c0.5,0,1.1-0.1,1.6-0.3c0.5-0.2,0.9-0.6,1.2-1l0.1-0.1c0.1-0.1,0.2-0.3,0.2-0.5
			c0.1-1,0.3-2,0.4-3.1l0.3-2.6c0.1-1.2,0.3-2.4,0.4-3.5s0.3-2.2,0.5-3.4c0.3-2,0.6-4.1,0.8-6.2c0.2-2.1,0.3-4.5,0.4-6.7
			c0.1-1.3,0.1-2.6,0.2-3.8c0.1-2.6,0-5.1-0.3-7.6l-0.2-1.9c-0.2-1.7-0.4-3.5-0.7-5.3s-0.8-3.7-1.2-5.5c-0.3-1.1-0.6-2.2-0.8-3.3
			c-0.4-1.9-0.8-3.9-1.2-5.7l-0.2-1.1c-0.1-0.3-0.1-0.7-0.2-1c0-0.3-0.1-0.8-0.2-1.1c-0.1-0.6-0.3-1.1-0.4-1.7
			c-0.1-0.6-0.3-1.4-0.5-2.1c0-0.4,0-0.7,0.2-1.1c0.1-0.3,0.2-0.6,0.3-0.8c0.1-0.3,0.2-0.5,0.3-0.8c0.1-0.4,0.2-0.9,0.4-1.3
			c0.1-0.4,0.3-1.2,0.5-1.8c0.6-1.9,1.2-3.4,1.7-4.8c0.1-0.3,0.2-0.7,0.4-1c0.5-1.4,1-2.7,1.7-4.1c0.6-1.1,1.3-2.2,2-3.2l0.8-1.2
			c0.3-0.7,0.9-1.2,1.6-1.4l0.6-0.2c1.6-0.6,3.2-0.8,4.8-0.8c0.7,0.1,1.4,0.5,1.9,1.1l0.1,0.1c-0.9-0.2-1.9,0-2.8,0.4
			c-0.6,0.3-1.1,0.7-1.6,1.1l-1.1,0.8c-1.9,1.3-3.4,3.3-4.1,5.5c-0.2,0.5-0.3,0.9-0.3,1.4c0,0.3-0.1,0.6-0.1,0.9
			c-0.6,2.5,0.4,4.6,1.4,6.3c0.2,0.2,0.4,0.5,0.7,0.6c0.2,0.1,0.3,0.2,0.4,0.3c1,1.1,2.1,1.9,3.4,2.4c1.3,0.6,2.7,0.8,4.1,0.8h0.4
			c0,0.2,0,0.3,0,0.5c-0.1,0.5-0.1,0.9-0.2,1.4c-0.2,0.9-0.3,1.7-0.3,2.6c-0.1,2.7,0,5.3,0.2,7.9c0.3,4,0.5,8,0.4,12
			c-0.1,2.6-0.3,5.1-0.6,7.7c-0.1,0.7-0.1,1.3-0.2,2c-0.2,2.1-0.6,4.3-0.9,6.3l-0.1,0.6c-0.5,2.6-0.9,5.4-1.6,8.1
			c-0.8,3.6-1.8,7.2-2.7,10.6c-0.5,1.7-1,3.3-1.6,4.9c-0.4,1.1-0.7,2.2-1.1,3.3c-0.1,0.4-0.1,0.8,0,1.1c0,0.1,0,0.2,0,0.3
			c0,0.1,0.1,0.2,0.1,0.3c0.1,0.1,0.2,0.1,0.3,0.2c0.1,0,0.3,0.1,0.4,0.1c0.4,0.2,0.8,0.2,1.2,0.2h0.3c1.2-0.2,1.6-0.3,1.7-1.7
			c0-0.1,0.1-0.2,0.1-0.4c0-0.1,0.1-0.2,0.1-0.2l0.3-0.8c0.3-0.9,0.6-1.8,0.9-2.7l0.5-1.7c0.6-2,1.2-4.1,1.8-6.1
			c0.8-3.1,1.5-6.3,2.4-10.4c0.6-2.6,1.1-5.3,1.5-8c0.2-1.3,0.4-2.7,0.5-4c0.1-1,0.2-2,0.4-3.1c0.1-0.4,0.1-0.9,0.1-1.3
			c0-1.2,0.3-2.4,0.8-3.4c0.4-0.6,0.7-1.3,1-2c0.2-0.5,0.4-0.9,0.7-1.4c0.2-0.3,0.4-0.7,0.6-1c0.3-0.4,0.5-0.8,0.7-1.2
			c0.7-1.6,1.8-2.9,3.2-4c1.3-0.9,2.7-1.7,4.2-2.4c0.8-0.5,1.8-0.8,2.8-0.8c1,0,1.9,0.3,2.8,0.8c0.3,0.2,0.6,0.4,0.8,0.7
			c0.2,0.3,0.4,0.6,0.4,0.9c-2-0.5-4.1-0.4-5.9,0.3c-2.2,0.8-3.3,2.6-4.4,4.4c-0.8,1.4-1,3.1-0.7,4.6c0.2,1.5,0.8,2.9,1.5,4.2
			c0.5,1,1.3,1.7,2.3,2.2c0.7,0.3,1.4,0.5,2.1,0.8l0.7,0.3c0.1,0,0.3,0.1,0.4,0.2c0,0.2-0.1,0.3-0.2,0.4c-0.8,1.6-1.4,2.9-2,4.1
			c-1,2.1-1.9,4.2-3,6.5c-0.3,0.6-0.5,1.2-0.8,1.8c-0.7,1.6-1.5,3.2-2.1,4.8c-1,2.4-1.9,5-2.9,8c-1,2.9-1.8,5.8-2.3,8.8
			c-0.6,3-1,6-1.1,9c-0.1,4.3,0.1,8.7,0.7,13c0.2,1.2,0.3,2.5,0.4,3.7l0.4,3.7l0.5,3.8c0.3,2.5,0.7,5.1,1,7.7
			c0.1,1.1,0.2,2.2,0.3,3.3c0.1,2,0.3,3.9,0.7,5.9c0.2,0.9,0.4,1.8,0.5,2.7c0.1,0.9,0.2,1.6,0.3,2.4c0.1,1.1,0.2,2.2,0.4,3.2
			c0.1,0.6,0.4,1.1,0.9,1.6c0.6,0.5,1.4,0.8,2.2,0.7c0.7,0,1.5-0.2,2.1-0.6c0.2-0.1,0.3-0.2,0.5-0.2c0.2,0,0.4-0.1,0.6-0.3
			c0.2-0.1,0.4-0.3,0.5-0.5c0.1-0.2,0.2-0.4,0.3-0.6c0-0.2,0-0.5,0-0.7c-0.1-0.4-0.2-0.8-0.2-1.2c-0.2-1-0.4-1.9-0.5-2.9
			c-0.2-1.6-0.4-3.3-0.6-4.9c-0.1-0.7-0.2-1.5-0.3-2.2l-0.2-1.4c-0.1-1-0.2-2-0.3-3l-0.4-3.4c-0.1-1.1-0.3-2.3-0.4-3.4l-0.2-1.9
			c-0.1-0.6-0.1-1.3-0.2-1.9s-0.2-1.1-0.3-1.7c-0.1-0.5-0.2-0.9-0.2-1.3c-0.1-0.4-0.1-1-0.2-1.5c-0.1-0.9-0.2-1.8-0.4-2.7
			c-0.8-3.2-1.3-6.1-1.7-8.8c-0.1-0.5-0.2-0.9-0.2-1.4c-0.1-0.9-0.3-1.8-0.4-2.8c-0.2-1.9-0.2-3.8-0.2-5.6c0-0.3,0-0.7,0-1
			c-0.1-1.4,0-2.8,0.1-4.2c0.3-2,0.8-4,1.4-5.9c0.9-2.8,2-5.7,3.2-8.9c1-2.5,2.1-5.2,3.7-8.6c1.1-2.3,2.2-4.5,3.2-6.7l1.7-3.6
			c0.2-0.5,0.5-1.1,0.8-1.6c1.2-2.4,2.3-4.9,3.1-7.5C208,116.6,208.6,114.2,208,111.6z M202.4,120.4c-0.2,0.5-0.5,1.1-0.7,1.6
			c-0.1,0.3-0.3,0.6-0.4,0.9s-0.3,0.4-0.6,0.3c-0.3-0.1-0.7-0.2-1-0.3l-0.2,0c-0.5-0.1-0.9-0.3-1.3-0.6c-0.4-0.3-0.7-0.6-0.9-1.1
			c-0.2-0.4-0.4-0.8-0.4-1.3c0-0.5,0-0.9,0.2-1.4c0.1-0.4,0.2-0.8,0.2-1.3c0-0.3,0.1-0.7,0.2-1c0.2-0.7,0.4-1.3,0.8-1.9
			c0.8-1.1,1.2-1.2,2.8-1.2l1,0.2l1.7,0.4c0.4,0.1,0.5,0.3,0.4,0.9c-0.3,1.8-0.8,3.6-1.5,5.4L202.4,120.4z M183.6,83.2l-0.6,3.5
			l-0.5,3.2c0,0.2-0.1,0.2-0.4,0.3c-3,0.4-4.7-1.5-6.1-3.5c-0.5-0.6-0.7-1.4-0.8-2.2c-0.1-0.8,0.1-1.6,0.4-2.3
			c0.5-1.3,1.3-2.5,2.4-3.5c1-1,2.3-1.7,3.6-2.1c0.1,0,0.3-0.1,0.4-0.1c0.3,0,0.7,0.1,1,0.1h0.2c0.1,0.1,0.2,0.3,0.3,0.4
			c0.1,0.7,0.2,1.5,0.2,2.2c0,0.8,0,1.7-0.1,2.5l-0.1,1.1v0.2L183.6,83.2z M154.3,69.4h0.2c0.1,0.1,0.1,0.3,0.1,0.4
			c0,0.1,0,0.2,0,0.3c0.1,0.4,0.1,0.8,0.2,1.2s0.1,0.7,0.1,1.1c0.3,1.7,0.6,3.4,0.9,5.1c0.1,0.7,0.3,1.5,0.4,2.2l0.1,0.3
			c0.1,0.2,0.1,0.5,0,0.8c-0.1,0.3-0.2,0.5-0.4,0.6c-0.6,0.5-1.4,0.7-2.1,0.7c-0.7,0-1.3-0.2-1.9-0.6c-0.6-0.3-1.1-0.8-1.4-1.4
			l-0.1-0.2c-0.7-0.9-1.1-2.1-1.2-3.2c0-2,0.7-4,1.9-5.7C151.9,70.1,153.1,69.5,154.3,69.4z M115.8,151c0.8-2.8,1.7-5.8,2.1-7.5
			l0.1-0.1l0.1-0.1l1.2-6c0.2-1.4,0.5-2.7,0.7-4l0.1-0.8c0.3-1.8,0.7-3.5,1-5.3l0.8,1.2c0.8,1.2,1.4,2.4,2,3.7
			c0.8,1.8,1.3,3.7,1.3,5.7c0,1.9-0.4,3.9-1.1,5.7c-0.4,1.1-0.8,2.2-1.2,3.4c-0.5,1.4-1,2.8-1.5,4.2c-0.8,2.2-1.6,4.4-2.5,6.6
			c-0.1,0.2-0.2,0.3-0.3,0.4l-0.1,0.1c-0.1,0.1-0.2,0.1-0.2,0.1c-0.1,0-0.1,0-0.2-0.1c0,0-0.1-0.1-0.1-0.1c-1.1-1.1-2-2.5-2.6-3.9
			c-0.1-0.3-0.2-0.6-0.3-1v-0.1L115.8,151z M121.4,101.6c-0.2,0.7-0.3,1.5-0.5,2.2l-0.8,2.9c-0.3,1-0.5,1.9-0.8,2.9
			c-0.2,1-0.5,2.1-0.8,3.2c-0.2,0.8-0.4,1.6-0.6,2.4c-0.2,0.8-0.4,1.5-0.6,2.3c-0.3,1.3-0.7,2.6-1,4c-0.3,1.6-0.7,3.3-1,4.9
			c-0.2,1.3-0.5,2.6-0.8,3.9l-0.5,2.4c-0.5,2.4-1,4.9-1.7,7.3c-0.1,0.4-0.2,0.8-0.3,1.3l-1.3-5.3l-0.1-0.4c-0.1-0.3-0.2-0.7-0.3-1
			c-0.7-4-1.7-8-2.9-11.9c-0.9-3.1-2-6.2-3.5-9.1c-0.3-0.5-0.6-1.1-0.9-1.6c-1.3-2.7-2.9-5.2-4.8-7.6c-0.5-0.7-1.2-1.2-1.9-1.6
			c-0.7-0.4-1.6-0.6-2.4-0.7l-1.2-0.1c-1.1-0.1-2.3-0.2-3.4-0.2c-0.6,0-1.3,0-1.9,0.1l-0.6,0.1c-0.3,0-0.6,0.1-0.8,0.2
			c-0.4,0.3-0.8,0.5-1.2,0.7c-1.2,0.5-2.2,1.3-2.9,2.4c-0.1,0.2-0.3,0.4-0.5,0.6c-0.1,0.1-0.2,0.2-0.3,0.4c-0.8,1.1-1.3,2.5-1.5,3.8
			v0.1c-0.3,2.1-0.4,4.3-0.2,6.4c0,0.6,0.1,1.2,0.1,1.7c0,0.4,0,0.7,0,1.1c0,0.4,0,0.8,0,1.1c0,1.4,0.2,2.7,0.6,4
			c0.1,0.3,0.1,0.6,0.1,0.9c0,0.2,0,0.4,0.1,0.5c0.4,2.6,0.7,5.3,1.1,7.9c0.5,3.4,1,6.7,1.5,10c0.1,0.4,0.2,0.8,0.2,1.3
			c0.1,0.3,0.1,0.6,0.2,1l0.9,5.5v0.2c0.1,1.1,0.3,2,0.4,2.9c0.1,0.6,0.3,1.3,0.4,1.9c0.2,0.6,0.3,1.3,0.4,1.9
			c0.2,0.8,0.3,1.7,0.5,2.5l0.4,2c0.2,0.8,0.3,1.6,0.5,2.4c0.2,0.8,0.3,1.4,0.4,2.1h-0.1c-2.6-0.5-6.1-1.2-6.7-1.4
			c-1.6-0.4-3.2-0.9-4.8-1.4c-1.2-0.4-2.5-0.7-3.7-1.1c-2.3-0.7-4.7-1.4-7-2c-1.2-0.3-2.4-0.6-3.6-0.9l-1.9-0.4l-3-0.7l-3.3-0.8
			l-3.2-0.7c-2.1-0.5-4.2-0.9-6.3-1.5c-0.9-0.2-1.7-0.5-2.6-0.9c-0.4-0.2-0.9-0.4-1.4-0.5c-0.5-0.2-0.7-0.2-1.1-0.3
			c-0.4-0.1-0.9-0.3-1.3-0.4c-1.7-0.7-3.7-1.4-5.7-2.3l-1.3-0.5c-1.8-0.7-3.7-1.5-5.4-2.4c-1.5-0.8-2.9-1.7-4.2-2.7
			c-0.6-0.5-1.2-1.2-1.7-1.8c-0.2-0.3-0.5-0.6-0.7-0.9l-0.3-0.4c-0.2-0.2-0.3-0.5-0.5-0.7c-0.7-0.7-1-1.6-1.1-2.6
			c-0.2-2.3-0.1-4.7,0.3-7c0.1-0.6,0.2-1.2,0.3-1.8c0.1-0.6,0.2-1.6,0.3-2.3c0.2-1.4,0.5-2.8,0.8-4.1c0.2-1,0.4-2.1,0.6-3.1
			c0.1-0.8,0.3-1.5,0.4-2.3c0.2-1.2,0.4-2.5,0.7-3.7c0.4-1.6,0.8-3.2,1.2-4.7c0.3-1,0.5-2.1,0.8-3.1c0.4-1.8,0.9-3.6,1.3-5.4
			c0.3-1.1,0.5-2.2,0.8-3.3c0.1-0.3,0.1-0.5,0.2-0.8c0.1-0.3,0.2-0.6,0.2-0.8c0.2-0.6,0.3-1.2,0.4-1.9l0.2-1.1l0.1-0.6
			c0.2-0.6,0.3-1.2,0.5-1.9c0.2-0.9,0.5-1.9,0.7-2.8c0.4-1.4,0.7-2.7,1.1-4.1s0.7-2.8,1-4.2c0.4-1.6,0.7-3.2,1.1-4.8
			c0.4-1.6,0.9-3.2,1.3-4.7c0.2-0.8,0.5-1.7,0.7-2.5c0.2-0.7,0.4-1.3,0.5-2c0.2-0.7,0.3-1.3,0.5-2c0.2-1,0.5-1.9,0.8-2.9
			c0.3-1,0.5-1.7,0.7-2.5l0.6-2.2c0.2-0.8,0.4-1.6,0.7-2.5c0.4-1.4,0.8-2.7,1.1-4.1c0.5-1.8,1-3.6,1.5-5.4c0.2-0.8,0.4-1.6,0.6-2.4
			c0.2-0.8,0.4-1.8,0.7-2.7v-0.2c0.6-2.1,1.2-4.4,1.9-6.5c0.5-1.5,1-3,1.5-4.4c0.3-0.9,0.6-1.7,0.9-2.6c0.2-0.6,0.4-1.2,0.6-1.8
			c0.3-0.9,0.6-1.8,0.9-2.7l0.3-0.8c0.5-1.8,1.4-3.4,2.7-4.8c0.2-0.2,0.5-0.5,0.7-0.8c0.3-0.3,0.6-0.7,0.9-1c0.8-0.7,1.9-1.2,3-1.1
			h0.2c1.3,0,2.7,0.1,4.5,0.3l1.3,0.1c2.5,0.2,5,0.5,7.5,0.8c1.1,0.1,2.2,0.4,3.3,0.6c0.6,0.1,1.3,0.3,1.9,0.4l3.2,0.6
			c1.5,0.3,3,0.5,4.6,0.8c1.5,0.3,2.8,0.6,4.2,0.9c0.7,0.2,1.4,0.3,2.1,0.5l1.5,0.3c0.9,0.2,1.9,0.4,2.8,0.6c1.2,0.3,2.5,0.6,3.7,1
			c1.6,0.4,3.2,0.9,4.8,1.2c4.1,1,8.2,2.2,12.2,3.4l0.7,0.2c2,0.6,4,1.1,5.9,1.7c1.7,0.5,3.3,0.9,5,1.4c0.9,0.3,1.8,0.6,2.7,0.9
			c1.1,0.4,2.2,0.8,3.3,1c1.5,0.4,2.7,1.4,3.5,2.7c0.3,0.4,0.6,0.8,0.9,1.2c0.5,0.6,1,1.3,1.4,2c0.7,1.3,1.1,2.7,1.2,4.2
			c0.2,2.1,0.1,4.2-0.2,6.2c-0.1,0.7-0.2,1.3-0.3,2c-0.1,0.7-0.2,1.5-0.3,2.2c-0.3,1.2-0.6,2.5-0.9,3.7l-0.5,1.8
			c-0.1,0.6-0.3,1.2-0.5,1.8c-0.3,1.1-0.6,2.2-0.9,3.2c-0.2,0.9-0.5,1.8-0.8,2.7s-0.5,1.6-0.7,2.3c-0.2,0.6-0.3,1.1-0.4,1.7
			c-0.1,0.3-0.1,0.6-0.2,0.9l-0.5,1.9c-0.5,2.2-1.1,4.4-1.7,6.6c-0.4,1.4-0.8,2.9-1.1,4.3c-0.4,1.6-0.9,3.3-1.3,5s-0.8,3.3-1.2,4.9
			c-0.3,1.2-0.5,2.3-0.8,3.5c-0.2,0.8-0.4,1.5-0.6,2.3c-0.2,0.8-0.4,1.3-0.5,1.9C121.7,100.2,121.6,100.9,121.4,101.6z M84,114.3
			c0.1-0.4,0.3-0.8,0.4-1.2c0.3-1,0.8-1.9,1.4-2.7c0.1-0.2,0.3-0.3,0.4-0.4c0.2-0.1,0.4-0.1,0.6-0.2h0.3c0.7,0.1,1.4,0.4,2,0.9
			c0.6,0.5,1.1,1,1.4,1.7c1.2,2,1.2,4.2,1.3,6.4c0,0.4,0,0.8,0,1.2v0.6c-0.1,1.3-0.5,2.6-1.2,3.8c-0.4,0.5-0.8,1-1.4,1.3
			c-0.6,0.3-1.2,0.5-1.8,0.5c-1.1-0.1-1.7-1-2.3-1.9c-1.4-2.2-1.5-4.7-1.7-7.2v-0.7C83.5,115.8,83.7,115,84,114.3z"/>
	</g>
</g>
</svg>
