<?xml version="1.0" encoding="utf-8"?>
<!-- Generator: Adobe Illustrator 26.0.2, SVG Export Plug-In . SVG Version: 6.00 Build 0)  -->
<svg version="1.1" id="Warstwa_1" xmlns="http://www.w3.org/2000/svg" xmlns:xlink="http://www.w3.org/1999/xlink" x="0px" y="0px"
	 viewBox="0 0 220 230" style="enable-background:new 0 0 220 230;" xml:space="preserve">
<style type="text/css">
	.st0{clip-path:url(#SVGID_00000048474711932002514120000000653329530303126923_);}
</style>
<g>
	<defs>
		<rect id="SVGID_1_" x="6.5" y="11.5" width="206.5" height="206.7"/>
	</defs>
	<clipPath id="SVGID_00000067926149838366407590000016465798073314476188_">
		<use xlink:href="#SVGID_1_"  style="overflow:visible;"/>
	</clipPath>
	<g style="clip-path:url(#SVGID_00000067926149838366407590000016465798073314476188_);">
		<path d="M212.5,186.8c-1.6-2.9-2.9-6.1-3.6-9.3c-0.6-2.5-1.3-4.9-2.1-7.2l-0.8-2.3c-1.2-3.5-2-5.7-3.5-9.8
			c-1.6-4.3-3.2-8.7-4.8-13c-0.7-1.9-1.4-3.8-2.2-5.7l-2-5.4c-1.5-4-3-8.1-4.6-12.1l-0.1-0.3c-2.7-6.4-5.5-13.1-9.6-18.9
			c-5.1-7.1-11.4-10.4-19.3-10c-0.4,0-0.9,0-1.4,0h-0.6c0-0.1,0-0.2-0.1-0.2c-0.1-0.2-0.1-0.4-0.1-0.7c-0.7-8.6-1.5-17.1-2.2-25.7
			c-0.1-1.1-0.2-2.2-0.2-3.4c-0.1-1.5-0.2-3.2-0.4-4.7c-0.3-3.1-0.7-6.2-1-9.2c-0.4-3.8-0.9-7.7-1.2-11.6c-0.4-5-1.4-9.9-2.8-14.7
			c-1.1-3.7-3.6-6.8-7-8.7c-2.3-1.3-4.9-2.1-7.5-2.3c-3.5-0.3-6.9-0.2-10.4,0.2c-4.1,0.4-8.3,0.6-12.4,0.8c-3,0.2-6.2,0.3-9.2,0.5
			c-3.8,0.3-7.7,0.7-11.4,1.1l-3.9,0.4c-1.4,0.2-2.8,0.3-4.2,0.5c-2.7,0.3-5.5,0.7-8.3,0.8c-3.5,0.2-6.9,0.9-10.2,2
			c-1.6,0.5-3,1.3-4.2,2.5c-2.4,2.4-3.4,5.7-4.1,8.6c-0.4,1.6-0.5,3.2-0.5,4.9c0.1,0.4,0,0.8-0.2,1.2s-0.5,0.7-0.8,0.8
			c-3.9,2.2-7.3,5.1-10.2,8.6c-2.6,3.2-4.9,6.6-6.9,10.2c-2,3.6-3.4,7.5-4.2,11.6c-0.9,4.6-1.7,9.2-2.4,13.7
			c-0.4,2.2-0.7,4.4-1.1,6.6c-0.1,0.6-0.2,1.1-0.4,1.7c-0.1,0.3-0.2,0.6-0.2,1c-0.1,0.3-0.2,0.6-0.4,0.8c-0.2,0.2-0.5,0.4-0.7,0.5
			c-1.6,0.8-3.1,1.6-4.6,2.4c-5.2,2.9-10.7,6-16.3,9.1c-0.5,0.3-1,0.8-1.1,1.4c-0.2,0.8-0.2,1.7,0,2.5c0,0.4,0.2,0.7,0.4,1
			s0.5,0.5,0.8,0.7c0.3,0.1,0.7,0.2,1,0.2c0.4,0,0.7-0.1,1-0.3c1.6-0.8,3.2-1.7,4.8-2.5l0.4-0.2c0.8-0.4,1.6-0.9,2.4-1.3
			c1.5-0.9,3.1-1.8,4.7-2.5c3.4-1.6,6.7-3.4,9.8-5.5c0.5-0.3,1-0.8,1.3-1.4c0.3-0.6,0.5-1.2,0.5-1.8c0.1-2.5,0.3-5.6,0.7-8.6
			c0.5-3.2,1-6.5,1.6-9.6l0.4-2.3c0.5-3.8,1.5-7.4,3-10.9c1-2,1.9-4,3.1-6c2.3-3.8,5-8,8.9-11.1c2.4-1.9,5-3.7,7.5-5.4l1.1-0.8
			c0.6-0.4,1.2-0.7,1.8-0.9l0.7-0.3l0.1,0.4c0.1,0.4,0.2,0.8,0.4,1.2l0.2,0.4c0.2,0.6,0.5,1.2,0.9,1.8c2.8,3.7,6.6,5,11.6,4.1
			c1.4-0.3,2.6-1,3.5-2c2.2-2.4,3.4-5.6,3.5-8.8c0-0.3,0.1-0.6,0.1-1c0,0,0-0.1,0-0.1c0.9,0.6,1.6,1.4,1.9,2.4
			c0.4,1,0.5,2.1,0.2,3.1c-0.5,2.3-1.8,4.3-3.6,5.8c-1.3,1.2-2.7,2.2-4.2,3.2c-1.2,0.8-2.5,1.6-3.8,2.3c-1.7,1-3.4,2.1-5,3.2
			c-1.7,1.1-3.3,2.5-4.7,4.1c-3.5,4.2-5.6,9.7-6.4,17.1c-0.2,2.8-0.3,5.5-0.3,8.3v1.9c0,3.9,0,8.1,0.1,12.8c0.1,6-1.2,11.9-3.7,17.3
			c-1.5,3-3.3,5.8-5.5,8.3c-2.4,3.2-5.2,6.1-8.3,8.7c-1.1,0.8-1.4,1.8-1,2.6c0.2,0.5,0.6,1,1,1.4c0.4,0.4,1,0.7,1.5,0.8
			c0.1,0,0.3,0,0.4,0c0.1,0,0.3-0.1,0.4-0.2l1-0.6c0.9-0.6,1.8-1.2,2.7-1.9c4.8-4,8.6-9,11.2-14.7l0.1-0.2c0.2-0.5,0.5-0.9,0.8-1.3
			v0.4c0,0.5,0.1,1,0.1,1.4c0,0.4,0,0.9,0,1.4c0,0.8,0,1.6,0.1,2.4l0.3,4.7c0.4,6.4,0.8,13.1,1.3,19.7c0.2,2.5,0.6,5,1.1,7.5
			c0.2,1.3,0.7,2.5,1.4,3.5c0.8,1,1.8,1.9,2.9,2.5c0.4,0.2,0.8,0.5,1.3,0.7l0.4,0.2c-0.1,0.1-0.2,0.2-0.3,0.2
			c-0.3,0.3-0.6,0.5-1,0.7l-5.7,3.8c-4,2.7-8.2,5.4-12.2,8.1c-0.5,0.3-1,0.7-1.5,1c-2,1.1-3.7,2.5-5,4.4l0,0.1v0.1
			c0.6,2,1.1,2.6,2.8,2.4c0.5-0.1,1.1-0.3,1.5-0.6c2.7-1.8,5.3-3.6,8-5.4l6.6-4.5c5-3.4,9.1-6.1,12.8-8.5c0.4-0.2,0.8-0.4,1.3-0.4
			c0.7,0,1.4,0.1,2,0.2c0.6,0.1,1.4,0.2,2.1,0.2l1.3,0.1c2.9,0.2,6,0.3,8.9,0.3c2.2,0,4.4-0.2,6.6-0.3l1.2-0.1
			c2.8-0.2,5.6-0.4,8.4-0.7c0.3-0.1,0.6,0,0.8,0.1c0.3,0.1,0.5,0.3,0.6,0.5c0.3,0.5,0.8,1,1.1,1.5l1.9,3c1.8,2.7,3.6,5.6,5.3,8.4
			l0.7,1.1c1.6,2.5,3.1,5.2,4.3,7.9c1.1,2.6,1.4,3.3,1.7,3.7c0.6,1.4,1.1,2.8,1.6,4.2c0.7,2,1.4,4,2,6c0.4,1.4,0.9,2.8,1.3,4.2
			c0.4,1.2,0.9,2.4,1.3,3.7c0.7,1.8,1.4,3.6,1.9,5.5c0.4,1.5,1.6,5.1,3.2,5.7c0.2,0.1,0.4,0.1,0.6,0.1c0.2,0,0.5-0.1,0.7-0.2
			c0.4-0.1,0.7-0.3,1-0.6c0.3-0.3,0.5-0.6,0.7-0.9c0.2-0.3,0.3-0.7,0.3-1.1c0-0.4,0-0.8-0.2-1.1c-0.2-0.8-0.5-1.6-0.7-2.4
			c-1.1-3.6-2.1-7.2-3.4-10.8c-1.4-3.9-1.5-4.2-1.8-5.1c-0.2-0.6-0.6-1.6-1.7-4.4c-0.4-1.1-0.9-2.2-1.3-3.2l-0.3-0.8
			c-2.5-5.3-5.3-10.4-8.4-15.3c-0.5-0.8-1-1.6-1.5-2.4c-1.3-2.2-2.7-4.4-4.2-6.5c-1.7-2.4-3.6-4.8-5.4-7.1c-0.9-1.1-1.7-2.2-2.6-3.4
			c-0.2-0.3-0.4-0.6-0.6-0.9l-0.2-0.3l0.2-0.2l0.6-0.5c2.3-1.8,3.9-4.4,4.5-7.3c0.6-2.9,0.2-5.9-1.2-8.5c-2.5-4.3-5.9-6-10.9-5.4
			c-2,0.2-3.8,1.1-5.2,2.5c-0.2,0.2-0.4,0.3-0.6,0.4c-0.2-0.6-0.2-1.3-0.1-1.9c0.1-0.6,0.4-1.2,0.8-1.7c0.4-0.5,0.9-0.9,1.5-1.2
			c0.6-0.3,1.2-0.4,1.9-0.4c3.9-0.5,7.8,0.4,11,2.6c3.3,2.1,6.3,4.5,9.4,6.9c3.4,2.8,6.5,5.9,9.4,9.1c0.5,0.6,1.1,1.2,1.7,1.8
			c2,2.2,3.9,4.5,5.6,7c2.1,3,4.3,5.9,6.4,8.6c0.9,1.2,2,2.3,3.1,3.3c0.8,0.8,1.8,0.7,2.8-0.2c0.2-0.1,0.4-0.3,0.5-0.5
			c0.1-0.2,0.2-0.4,0.2-0.7c0-0.2,0-0.5-0.1-0.7c-0.1-0.2-0.2-0.4-0.3-0.6c-0.2-0.4-0.5-0.8-0.8-1.1l-0.3-0.4l-2.1-3
			c-2.1-3-4.2-6-6.3-9c-0.3-0.5-0.6-1-0.7-1.6c-0.4-1.7-0.7-3.3-1.1-5c-0.6-2.7-1.2-5.6-1.9-8.3c-1.6-6.5-4.7-12.6-9-17.7
			c-3-3.5-6.2-6.8-8.9-9.5c-2.3-2.3-4.8-4.6-7.2-6.8c-0.8-0.7-1.6-1.5-2.4-2.2l-1-0.9c-2.2-1.8-4.2-4-5.7-6.4
			c-1.5-2.8-2.8-5.7-3.7-8.7c-0.6-1.9-0.6-3.9-0.1-5.8c0.2-0.7,0.6-1.3,1.1-1.8c0.5-0.5,1.2-0.8,1.9-0.9c-0.1,0.2-0.2,0.4-0.3,0.6
			c-0.3,0.7-0.7,1.5-1,2.3c-0.7,1.5-0.9,3.2-0.7,4.8c0.2,1.6,0.9,3.2,2,4.5c2.1,2.7,5.2,3.9,9.2,3.5c1.7-0.2,3.3-0.7,4.8-1.6
			c1.5-0.9,2.8-2,3.8-3.4c0.2-0.3,0.4-0.5,0.7-0.8l0.2-0.2l1.6,1.2c1.3,1,2.5,1.9,3.8,2.8c3.8,3.1,7.2,5.8,10.5,8.7
			c5.1,4.3,9.2,9.7,11.8,15.8c0.8,2,1.6,3.7,2.3,5.4c3.1,6.8,5.8,13.7,7.9,20.8c0.7,2.6,1.2,2.9,3.9,2.8c0.1,0,0.2,0,0.4-0.1h0.1
			c0.4-0.4,0.7-0.9,0.8-1.5c0.1-0.6,0.1-1.2-0.2-1.7c-0.2-0.5-0.3-1-0.5-1.5c-0.2-0.5-0.4-1.1-0.5-1.6c-2-6.9-4.6-13.7-7.5-20.3
			l-0.8-1.8c-1.5-3.6-3.3-7-5.4-10.2c-0.6-0.8-1.1-1.6-1.7-2.4l-0.7-1l0.5-0.1c0.5-0.1,0.9-0.1,1.4-0.1c1.2,0,2.4,0.1,3.6,0.1h0.8
			c1.9,0.1,3.7,0.8,5.1,1.9c3.7,3,6.2,6.9,8.3,10.4c2.3,4,4.2,8.2,5.9,12.5c0.7,1.6,1.3,3.2,2.1,4.8c0.9,2.1,2,4.3,3.3,6.7
			c0.1,0.2,0.3,0.5,0.4,0.6c0.2,0.2,0.4,0.3,0.7,0.4c0.2,0.1,0.5,0.1,0.8,0.1c0.3,0,0.5-0.1,0.8-0.2c0.5-0.2,0.9-0.6,1.1-1
			c0.2-0.5,0.3-1,0.2-1.5c-0.2-0.9-0.5-1.8-0.9-2.7c-0.5-1.2-1-2.4-1.5-3.6c-0.6-1.3-1.2-2.7-1.7-4.1c-2.6-6.6-5.7-13-9.2-19.2
			c-1.5-2.6-3.4-4.9-5.6-6.8c-0.2-0.1-0.3-0.3-0.4-0.5l-0.1-0.1l1.1-0.1c1.1-0.1,2.1-0.2,3-0.3c1.8-0.2,3.6,0,5.3,0.7
			c2.9,1.1,5.4,3,7.3,5.5c2.4,3,4.6,6.4,6.3,9.9c3.7,7.4,6.9,15,9.6,22.8c0.6,1.7,1.2,3.4,1.8,5.1c0.6,1.8,1.3,3.7,2,5.5
			c0.7,1.8,1.5,4,2.3,5.9c0.9,2.3,1.8,4.7,2.7,7c1.6,4.4,2.1,5.6,2.6,7c0.5,1.4,1,2.6,2.5,6.5c0.7,2,1.3,3.9,1.8,5.9
			c0.7,3.1,1.8,6.1,3.2,8.9c0.2,0.4,0.5,0.8,0.8,1.2c0.4,0.5,1,0.8,1.7,0.8c0.6,0.1,1.3-0.1,1.8-0.4
			C213.1,189.2,213.2,188.3,212.5,186.8z M75.7,40.2c-1.8,1.6-4.1,1.1-5.6,0.4c-2.4-1.1-3.6-3-3.4-5.9c3.4-1.7,7-2.8,10.8-3.1
			C79.3,34.8,77.9,38.3,75.7,40.2z M93.5,137c0.9-1.6,2.5-2.7,4.2-3.2c1.8-0.5,3.6-0.3,5.3,0.6c0.8,0.4,1.4,1,1.8,1.7
			s0.7,1.6,0.8,2.4c0.2,1.2,0.1,2.5-0.3,3.7c-0.4,1.2-1.1,2.3-2,3.1c-0.6,0.6-1.3,1.1-1.9,1.7l-0.8,0.6l-0.2-0.1
			c-0.1-0.1-0.3-0.2-0.4-0.3l-3.6-5c-1-1.4-1.9-2.7-2.9-4.1c-0.2-0.2-0.2-0.4-0.3-0.6C93.3,137.3,93.3,137.1,93.5,137z M92.7,145.4
			c1.3,2,2.7,4,4.1,6c0.9,1.2,1.9,2.4,2.8,3.6l1.3,1.6l0.8,0.9l0.2,0.2h-0.2c-0.2,0.1-0.5,0.1-0.7,0.2l-0.6,0.1
			c-1.1,0.1-2.3,0.2-3.5,0.2c-1.9,0-3.9,0.1-5.8,0.2c-4.9,0.4-9.8,0.4-14.6-0.2c-2.6-0.2-5.1-1-7.4-2.4c-0.9-0.5-1.6-1.2-2.2-2
			c-0.6-0.8-0.9-1.8-1.1-2.8c-0.5-3.4-0.9-6.3-1.1-8.9c-0.2-3.3-0.4-6.7-0.6-10c-0.2-4.8-0.5-9.7-0.9-14.6c-0.1-0.9-0.2-1.8-0.2-2.7
			c-0.4-4.8-0.8-9.8-0.8-14.8v-1.8c0-2.2,0-4.5-0.1-6.7c-0.5-5.8-0.5-11.6-0.1-17.4c0.2-1.8,0.6-3.6,1.2-5.3c0.2-0.7,0.4-1.3,0.6-2
			c0.2-0.7,0.4-1.2,0.6-1.8c0.3-0.8,0.5-1.6,0.7-2.5c0.2-0.7,0.4-1.3,0.8-1.9c0.1,2.5,0.3,5.1,0.4,7.6c0,19.1,1.8,38.4,4,57.4
			c0.4,3.3,0.8,7.7,2.5,10.6c4.1,6.8,10.7,5.2,17.1,5C90.9,142.7,91.8,144.1,92.7,145.4z M128.6,142.8l-0.5-0.5
			c-0.5-0.4-1-0.8-1.4-1.3c-0.6-0.7-1.3-1.3-1.9-2l2.9-0.2c0.2,0.6,0.4,1.3,0.6,1.9c0.1,0.5,0.2,1,0.3,1.4
			C128.5,142.4,128.6,142.6,128.6,142.8L128.6,142.8z M111.2,83.2c-0.9,2.7-2.6,4.2-5.3,4.4c-1.2,0.2-2.5-0.1-3.6-0.7
			c-1.1-0.6-1.9-1.6-2.4-2.8c-0.3-0.8-0.6-1.6-0.8-2.5c-0.1-0.3-0.1-0.6-0.2-0.8c0-1.8,0.6-3.5,1.7-4.9c0.8-0.9,1.2-1,2.1-0.4
			c1.5,0.9,3,1.9,4.1,2.8c0.7,0.5,1.3,1,1.9,1.5c0.6,0.5,1.1,0.9,1.6,1.3c0.3,0.2,0.6,0.6,0.7,1C111.4,82.3,111.4,82.8,111.2,83.2z
			 M137.7,96.2c-0.5,0.2-0.8,0-1.2-0.4l-0.2-0.2l-4.8-4.1l-3.9-3.4c-0.3-0.2-0.5-0.4-0.8-0.6l-0.2-0.1l-7.8-6.5l-0.2-0.2
			c-3.1-2.5-6.4-5.1-9.6-7.4c-2.9-2-6.3-3.2-9.8-3.5c-3.4-0.3-8,2.3-9.6,5.6c-1.5,3-1.9,6.5-1.1,9.7c0.1,0.2,0.1,0.5,0.1,0.8
			c0,0.1,0,0.2,0,0.2l3.3,6.6c2.5,4,5.7,7.5,9.4,10.5c2.8,2.2,5.3,4.6,7.4,6.7c3.9,3.8,7.6,7.7,11.1,11.9c2.5,3.1,4.4,6.6,5.7,10.3
			c0.3,0.9,0.6,1.8,0.9,2.7l-2.8,0.1l-2.9,0.1c-2.1-1.9-4.4-3.9-7-5.9c-2.8-2.3-6.1-4.1-9.5-5.3c-3.2-1-6.5-1.4-9.9-1
			c-1.7,0.2-3.3,1-4.6,2.2c-1.3,1.2-2.1,2.8-2.4,4.5c-0.5,2.8-0.2,5.6,0.8,8.2l-1.4,0.1c-2.3,0.3-4.6,0.2-6.9-0.3
			c-0.6-0.2-1.1-0.5-1.5-0.9c-0.6-0.7-1-1.5-1.2-2.3c-0.5-1.4-0.9-2.9-1.1-4.4c-0.4-2.6-1.1-5.1-1.3-7.8c-0.1-1.5-0.4-2.9-0.5-4.4
			c-0.3-3-0.5-6.1-0.8-9.2c-0.2-2.8-0.5-5.7-0.8-8.5c-0.2-1.7-0.4-3.4-0.6-5.1s-0.2-3.4-0.4-5.1c0-0.7-0.2-1.4-0.2-2.2
			c-0.1-1-0.2-1.9-0.2-2.9c0-0.5,0-1-0.1-1.4c-0.1-1.1-0.3-2.3-0.3-3.4c-0.1-2.7-0.2-5.4-0.4-8.1c-0.1-1.9-0.1-3.8-0.3-5.6
			s-0.3-4-0.4-6c-0.1-1.1-0.1-2.1-0.2-3.2c1.5-1.1,3-2.2,4.7-3.1l0.4-0.2c3.2-1.8,6.3-3.8,9.2-6.1c2.5-2,4.2-4.8,4.9-7.9
			c0.2-0.8,0.2-1.6,0.2-2.4l2.4-0.2c1.6-0.2,3.1-0.3,4.7-0.4s3.1-0.1,4.6-0.2c2.3-0.2,4.6-0.4,6.9-0.6c3-0.2,6-0.5,9-0.6
			c2.7-0.1,5.4-0.4,8.1-0.6c2.2-0.3,4.3-0.3,6.5,0c1.1,0.2,2.2,0.2,3.2,0.5c0.7,0.1,1.4,0.4,2,0.9c0.6,0.4,1,1,1.4,1.7
			c0.5,1,0.8,2,1.2,3c0.1,0.2,0.1,0.5,0.1,0.7c0.1,1.8,0.2,3.7,0.4,5.6c0.1,1,0.1,2,0.1,2.9c0,3.3,0.1,6.5,0.5,9.8
			c0.2,1.6,0.3,3.2,0.5,4.9c0.2,2.4,0.3,4.8,0.5,7.2c0.2,2.9,0.4,5.8,0.7,8.6c0.4,5,0.9,9.9,1.4,14.9
			C141.2,95.3,139.4,95.6,137.7,96.2L137.7,96.2z M150.5,94.5c-0.6,0.3-1.1,0.5-1.6,0.8c-0.3,0.1-0.7,0.2-1,0.2l-1.1-0.1
			c-1.2-15.9-3.4-31.8-3.7-47.7c-0.1-4.5-0.2-9.4-3.1-12.8c-5-5.8-14.5-4-21.2-3.9c-1.3,0-2.6-0.1-3.9,0c-1.8,0.1-3.6,0.3-5.4,0.4
			c-2.1,0.1-4.2,0.2-6.3,0.3c-1,0.1-2,0.2-2.9,0.3L98,32.1c-0.7,0-1.3,0.1-2,0.2c-1.6,0.4-3.2,0.6-4.9,0.8c-1.1,0.1-2.2,0.2-3.4,0.3
			c-0.4-0.7-0.8-1.3-1.3-1.9C85.3,30.2,84,29,82.6,28c-0.9-0.6-2-0.9-3.1-0.9c-0.8,0-1.7,0.1-2.5,0.4c-3.2,0.9-6.5,2-9.6,3.1l-3,1
			c-0.8,0.3-1.7,0.6-2.6,0.9l-0.9,0.3c0-0.1-0.1-0.1-0.1-0.2c0.1-0.6,0.3-1.2,0.4-1.9c0.4-1.8,0.8-3.6,1.4-5.3
			c0.2-0.7,0.7-1.4,1.2-1.9c0.5-0.5,1.2-0.9,1.9-1.1c1.6-0.5,3.2-0.9,4.8-1.2c2.3-0.3,4.6-0.6,6.8-0.9l2.4-0.3
			c1.4-0.2,2.5-0.3,3.6-0.4l3.9-0.4c3.3-0.3,6.7-0.6,10.1-0.9c2.9-0.2,5.8-0.3,8.6-0.4c2.1-0.1,4.4-0.2,6.6-0.3
			c1.7-0.1,3.4-0.2,5-0.4c2-0.2,4.1-0.3,6.2-0.4c2.4-0.1,4.8-0.1,7.1-0.2c1.4,0,2.7,0,4.1-0.1c2,0,3.9,0.8,5.8,2.6
			c2.6,2.7,4.3,6,4.9,9.7c1.3,6.1,1.6,12.4,1.9,18.5l0.1,1.2c0.4,8.6,0.8,17.5,1.5,26.3c0.3,3.9,0.8,7.9,1.2,11.8
			c0.2,1.8,0.4,3.6,0.6,5.4c0.1,0.4,0.1,0.9,0.1,1.4v0.5L150.5,94.5z"/>
		<path d="M104.9,22.1c-1-0.1-1.9,0.1-2.7,0.7c-0.3,0.3-0.6,0.7-0.8,1.1c-0.2,0.4-0.3,0.9-0.2,1.3c-0.1,1.8,1.2,3,3.2,3.1h0.2
			c0.8,0,1.5-0.2,2.1-0.8c0.3-0.3,0.5-0.6,0.7-0.9s0.2-0.7,0.2-1.1c0.1-0.8-0.2-1.6-0.7-2.2C106.5,22.6,105.7,22.2,104.9,22.1z"/>
	</g>
</g>
</svg>
