<?xml version="1.0" encoding="utf-8"?>
<!-- Generator: Adobe Illustrator 26.0.2, SVG Export Plug-In . SVG Version: 6.00 Build 0)  -->
<svg version="1.1" id="Warstwa_1" xmlns="http://www.w3.org/2000/svg" xmlns:xlink="http://www.w3.org/1999/xlink" x="0px" y="0px"
	 viewBox="0 0 220 230" style="enable-background:new 0 0 220 230;" xml:space="preserve">
<style type="text/css">
	.st0{clip-path:url(#SVGID_00000147186499648677130340000010651570671872591762_);}
</style>
<g>
	<defs>
		<rect id="SVGID_1_" x="7.5" y="34.8" width="205.1" height="160.5"/>
	</defs>
	<clipPath id="SVGID_00000022540316625974103500000010678516856406742433_">
		<use xlink:href="#SVGID_1_"  style="overflow:visible;"/>
	</clipPath>
	<g style="clip-path:url(#SVGID_00000022540316625974103500000010678516856406742433_);">
		<path d="M211.3,92.6c0.3,7.3,0.6,14.1,0.8,20.8c0.2,7.5,0.2,15,0.3,22.5c0,3.9,0.2,7.8,0.1,11.7c-0.1,6.6-0.4,13.2-0.6,19.9
			c-0.1,2.3-0.3,4.6-0.5,6.9c-0.4,3.3-1.3,6.6-2.7,9.6c-0.4,0.7-0.9,1.2-1.5,1.7c-1.2,1.2-2.5,2.3-3.9,3.4c-2,1.6-4.5,2.5-7.1,2.5
			c-1.2,0-2.4,0.1-3.6,0.2c-4.9,0.5-9.8,1.2-14.8,1.5c-8.9,0.5-17.8,0.7-26.7,0.9c-3.2,0.1-6.4,0.2-9.5,0.2c-10.2,0-20.4,0-30.6,0
			c-6.6,0-13.2,0-19.8,0.1c-5.5,0-11.1,0.1-16.6,0.2c-5.5,0.1-11.2,0.4-16.9,0.4c-7.4,0-14.8-0.2-22.2-0.6
			c-3.8-0.3-7.7-0.7-11.5-1.4c-1.4-0.2-2.7-0.8-3.8-1.7c-2.8-2.4-5.5-4.8-6.8-8.4c-0.8-2.5-1.4-5.1-1.8-7.7
			c-0.2-1.7-0.6-3.4-0.7-5.2c-0.2-1.7-0.2-3.3-0.3-5c-0.3-4.2-0.7-8.5-1-12.7c-0.3-4.8-0.5-9.5-0.7-14.3c-0.2-5.1-0.1-10.1-0.2-15.2
			c-0.2-6.7-0.5-13.4-0.8-20.1c-0.2-4.5-0.6-9-0.5-13.5c0.1-8,0.1-16,0.8-23.9c0.2-3.4,0.8-6.7,1.7-9.9c1.1-2.9,2.7-5.6,4.8-7.8
			c1.2-1.2,2.5-2.3,3.8-3.3c1-0.8,2.2-1.5,3.4-1.9c3.3-1.1,6.6-1.8,10-2.3c7.7-1.3,15.4-2.1,23.2-2.3c1.6,0,3.2-0.4,4.7-0.4
			c4.2-0.2,8.3-0.3,12.5-0.5c4.9-0.2,9.9-0.5,14.8-0.6c8.2-0.2,16.4-0.3,24.7-0.5c4-0.1,7.9-0.2,11.9-0.3c4.3-0.1,8.7,0,13-0.1
			c3.5-0.1,7-0.3,10.5-0.4c3-0.1,6.1-0.1,9.1-0.2c3.7-0.1,7.4-0.3,11-0.2c4.5,0.1,9.1,0.2,13.6,0.5c4.7,0.3,9.4,1.2,13.9,2.9
			c2.7,1,5.1,2.7,7,4.8c1.3,1.2,2.4,2.5,3.4,4c1.1,2,2,4.1,2.7,6.3c1.3,4.8,2,9.6,2.1,14.6c0.4,5.7,0.8,11.4,1.1,17.1
			C211.5,87.7,211.3,90.4,211.3,92.6z M162.1,187.8h2.5c9.3,0.1,18.7-0.8,27.9-2.4c1.6-0.2,3.1-0.6,4.6-1.1c2.5-1,4.7-2.6,6.4-4.7
			c0.6-0.7,1-1.4,1.2-2.3c0.6-2.6,1-5.3,1.2-7.9c0.3-5.7,0.4-11.5,0.4-17.2c0-8.2,0-16.4-0.1-24.6s-0.5-16.7-0.9-25
			c-0.3-6.7-0.6-13.3-0.9-20c-0.3-6.7-0.7-13.3-1.1-20c-0.1-1.2-0.2-1.3-1.4-1.2c-2.3,0.1-4.6,0.2-6.9,0.3
			c-4.4,0.2-8.7,0.4-13.1,0.6c-5.6,0.3-11.2,0.6-16.9,0.9c-2.5,0.1-5.1,0.1-7.6,0.3c-4.2,0.2-8.3,0.5-12.5,0.7
			c-4.2,0.2-8.6,0.3-12.9,0.5c-5.8,0.2-11.5,0.5-17.3,0.6c-5.8,0.1-11.8,0.1-17.7,0.1c-2.9,0-5.7,0.2-8.6,0.2
			c-7.9,0.1-15.9,0.2-23.9,0.3c-4.2,0.1-8.5,0.1-12.7,0.3c-6.4,0.3-12.9,0.8-19.3,1.1c-6.2,0.2-12.4,0.3-18.7,0.4c-0.7,0-1,0.2-1,1
			c0,4.4-0.2,8.8-0.2,13.2c0,8.2,0,16.3,0.1,24.5c0.1,8.5,0.2,17.1,0.4,25.6c0.1,4.8,0.4,9.6,0.5,14.4c0.2,7,1.1,14,2,20.9
			c0.4,3.3,1,6.5,1.4,9.8c0.3,2.5,1.3,4.8,2.8,6.9c0.5,0.8,1.3,1.4,2.3,1.7c3.5,1,7.2,1.6,10.9,1.6c10.2,0.2,20.4,0.2,30.7,0.2
			c5.9,0,11.9,0,17.8,0c3.2,0,6.5,0.2,9.7,0.2c6.5-0.1,13-0.4,19.5-0.5c5.8-0.1,11.6,0,17.4,0.1c5,0.1,10,0,14.9,0.4
			C149.5,188.1,155.8,188.2,162.1,187.8z M168,58.3L168,58.3c1.4-0.1,2.8,0,4.2-0.1c5.6-0.3,11.2-0.7,16.8-1
			c4.2-0.2,8.4-0.4,12.6-0.5c1-0.1,1.1-0.2,0.9-1.2c-0.5-3-2-5.7-4.1-7.8c-2.3-2.3-5-4.1-7.9-5.5c-1.2-0.7-2.6-1.2-4-1.4
			c-1.8-0.1-3.7-0.2-5.6-0.2c-6.2-0.1-12.5-0.1-18.7-0.2c-5.7,0-11.3-0.1-17,0c-5.3,0.1-10.7,0.5-16,0.6c-8.3,0.2-16.7,0.4-25,0.7
			c-3.8,0.1-7.5,0.5-11.3,0.6c-6.3,0.1-12.6,0.1-18.9,0.1c-4.3,0-8.6,0.1-12.9,0.2c-5.3,0.2-10.5,0.6-15.8,0.9c-2,0-4,0.2-6,0.4
			c-3.9,0.7-7.7,1.6-11.6,2.3c-3.9,0.7-6.8,3-9.3,5.9c-1.4,1.5-2.5,3.2-3.5,5c-0.9,1.7-1.4,3.5-1.7,5.4c-0.1,0.7,0.1,0.9,0.9,0.9
			c3-0.2,6.1-0.2,9.1-0.4c5.2-0.2,10.5-0.5,15.7-0.8c4.4-0.2,8.9-0.5,13.3-0.6c3.8-0.1,7.5-0.2,11.3-0.3c3.3-0.1,6.5-0.2,9.8-0.3
			c2.9,0,5.8,0,8.7,0c4.8,0,9.7-0.2,14.5-0.2c4.5,0,9,0.1,13.5,0c5.9-0.1,11.7-0.4,17.6-0.6c5.6-0.2,11.2-0.5,16.8-0.8
			C152.2,59.2,160.1,58.7,168,58.3z"/>
		<path d="M151.4,85.9c4.6-0.2,10.7-0.4,16.9-0.6c1.4,0,2.8,0.2,4.2,0.1c3.7-0.1,7.4-0.2,11-0.4c1.9-0.1,3.8-0.2,5.7-0.3
			c1.4-0.1,2.2,0.8,2.6,2.3c0.6,3.2,1,6.5,1,9.7c0.2,3.7,0.5,7.4,0.6,11.1c0.1,5.4-0.1,10.8-0.1,16.3c0,3.3,0.1,6.6,0.1,9.9
			c0,2.3-0.1,4.7-0.1,7.1c0.1,3.8-0.3,7.6,0.3,11.5c0.2,1.5,0.2,3.1,0.1,4.7c0,0.4-0.3,0.8-0.5,1.1c-0.1,0.1-0.3,0.2-0.3,0.3
			c-0.2,1.2-1.2,1.2-2.1,1.3c-4.3,0.3-8.6,0.6-12.9,0.8c-3.8,0.1-7.6,0-11.4,0.1c-5.5,0.1-11,0.4-16.5,0.5
			c-4.1,0.1-8.3-0.2-12.5-0.2c-3.6,0-7.3,0.1-11,0.1c-1.2,0-2.3-0.1-3.5-0.2c-0.2,0-0.5-0.1-0.7-0.2c-0.2-0.1-0.4-0.3-0.5-0.5
			c-0.1-0.2-0.3-0.4-0.3-0.7c-0.1-0.2-0.1-0.5,0-0.7c0.1-1.4,0-2.8,0-4.2c-0.1-5.5-0.3-11-0.4-16.4c-0.2-7.5-0.5-15.1-0.8-22.6
			c-0.2-5.3-0.5-10.5-0.7-15.8c-0.2-3.9-0.3-7.8-0.4-11.7c0-0.2,0-0.4,0.1-0.6c0.1-0.2,0.2-0.3,0.3-0.5c0.1-0.1,0.3-0.2,0.5-0.3
			c0.2-0.1,0.4-0.1,0.6-0.1c6.6-0.3,13.2-0.5,19.8-0.8C143.5,85.8,146.7,85.9,151.4,85.9z M173.5,119.2c0.2,0.1,0.5,0.1,0.8,0.1
			c1.5,0,3.1,0.3,4.4,1.1c0.5,0.3,1,0.5,1.6,0.5c2.6,0.1,5.2,0.1,7.8,0.1c1.1,0,1.1-0.1,1.2-1.2c0-2.3,0-4.6,0.1-6.9
			c0.1-7.3-0.1-14.6-0.8-21.9c-0.1-1.1-0.1-1.1-1.3-1.1c-3,0-5.9,0-8.9,0c-3.8-0.1-7.7-0.2-11.5-0.2c-3.6,0-7.2,0.2-10.8,0.3
			s-7.5,0.2-11.2,0.2l-6.3,0.1c-5,0.1-10,0.7-15,0c-0.9-0.1-1,0.2-0.9,1c0.2,1.8,0.4,3.6,0.5,5.4c0.2,4.5,0.4,9,0.5,13.5
			c0.2,4.2,0.4,8.4,0.6,12.6c0,0.7,0.3,1,1,1l6.1-0.3c1.4-0.1,1.4-0.1,1.4-1.5c0-0.3,0-0.7,0.1-1.1c0.4-4.5,1.4-9,3-13.2
			c0.5-1.7,1.5-3.2,2.9-4.3c1.4-1.1,3.1-1.7,4.9-1.7c2.1,0,4.2-0.4,6.2,1c3,1.9,5.4,4.7,6.9,7.9c1.4,3.1,2.2,6.5,2.3,9.9
			c0.1,0.8,0.4,1,1.1,1c1.9-0.1,3.8-0.2,5.6-0.2c0.4,0,0.8-0.1,1.1-0.3c0.3-0.2,0.6-0.5,0.8-0.9c1-1.8,2-3.7,3.2-5.5
			c1.7-2.6,3.5-5.1,5.3-7.6c0.1-0.2,0.2-0.5,0.2-0.7c-0.2-0.1-0.4-0.1-0.6-0.1c-2.8,0.2-5.5,0.6-8.3,0.8c-1.6,0.2-3.3,0-4.8-0.6
			c-0.7-0.3-1.4-1.4-1.2-2c0.1-0.2,0.3-0.4,0.5-0.5c0.2-0.1,0.4-0.2,0.7-0.3c1.8-0.2,3.7-0.3,5.6-0.4c2.6-0.2,5.2-0.3,7.8-0.6
			c1-0.1,1.9-0.4,2.9-0.4c2.2,0,4.5,1.9,2.7,4.5c-1.1,1.6-2.1,3.4-3.2,5.1c-1,1.5-1.9,3-2.9,4.4
			C174.9,117.4,174.2,118.2,173.5,119.2z M188.9,138.2h0.1c0-4,0-8,0-12c0-0.8-0.2-1.2-1.1-1.3c-1.3,0-2.5-0.1-3.8-0.2
			c-0.9,0-1,0.2-0.6,1c1.2,2.2,1.8,4.6,1.8,7.1c0.1,3.5-1.4,6.6-3,9.6c-1,1.9-2.7,3.4-4.7,4.1c-3,1-6.3,0.8-9.2-0.5
			c-1.4-0.6-3.2-1.2-3.4-3.3c-0.1-0.8,0.7-2,1.5-1.8c0.6,0.2,1.2,0.5,1.7,0.9c1.9,2,4.2,2.1,6.5,1.6c1-0.3,2-0.8,2.8-1.5
			c0.8-0.7,1.4-1.6,1.8-2.6c1-2,1.6-4.2,1.9-6.4c0.3-2.4-0.1-4.7-1.3-6.8c-0.2-0.5-0.6-0.9-1.1-1.1s-1-0.4-1.5-0.3
			c-2.2,0.2-4.4,0.2-6.5,0.3c-3.2,0.1-6.4,0.2-9.6,0.3c-1.9,0.1-1.8,0.2-1.9,2c-0.3,3.5-0.5,6.9-1,10.4c-0.4,2-1,3.9-1.8,5.7
			c-0.5,0.9-1.2,1.8-1.9,2.6c-1.4,1.8-3.4,3-5.7,3.5c-2,0.5-4-0.1-5.9-0.8c-3-1.1-5.6-3.3-7.1-6.1c-1.2-2.1-1.9-4.5-2.2-6.9
			c-0.4-2.4-0.6-4.9-0.8-7.3c-0.1-1.2-0.1-1.2-1.3-1.2c-2.1,0.1-4.3,0.1-6.5,0.2c-0.6,0-0.8,0.2-0.7,0.8c0.1,0.6,0.2,1.3,0.2,2
			c0.2,3.7,0.4,7.3,0.5,11c0.2,4.8,0.3,9.7,0.3,14.6c0,0.9,0.3,1.2,1.2,1.2c3.7-0.1,7.5-0.1,11.2-0.1c4.6-0.1,9.2-0.2,13.9-0.4
			c7-0.3,14-0.9,21-0.8c5.2,0.1,10.5-0.2,15.7-0.4c0.7,0,0.8-0.4,0.8-0.9c-0.1-1.5-0.2-2.9-0.2-4.4
			C188.9,146.1,188.9,142.2,188.9,138.2L188.9,138.2z M138.4,127.1h-0.4c-1.5,0-1.4,0-1.4,1.5c0,0.6,0,1.1,0.1,1.7
			c0.4,2.5,0.7,4.9,1.4,7.4c0.8,2.9,2.8,5.2,4.7,7.5c0.2,0.2,0.4,0.4,0.7,0.6c3.4,2.1,6.5,0.6,8.4-1.9c1.1-1.5,1.8-3.2,2.1-5
			c0.6-4,0.9-8,1.3-11.9c0.1-0.7-0.2-1-1-0.9c-2.1,0.2-4.1,0.3-6.2,0.5C144.8,126.5,141.6,126.8,138.4,127.1z M144.8,122.7v0.1
			l9.3-0.7c0.6,0,0.8-0.3,0.8-0.9c0-0.4,0-0.7-0.1-1c-0.5-2.4-0.9-4.8-1.5-7.2c-0.2-1.1-0.7-2.2-1.3-3.1c-0.7-0.9-1.5-1.8-2.4-2.4
			c-1.2-0.7-2.4-1.3-3.7-1.8c-0.8-0.3-1.7-0.2-2.5,0.1c-1.7,0.7-3,2-3.8,3.7c-1.7,4-2.7,8.3-3,12.6c-0.1,1.1,0,1.2,1.1,1.1
			L144.8,122.7z"/>
		<path d="M101.9,157.4c-0.7,0.4-1.2,0.8-1.7,1c-0.5,0.3-1,0.4-1.5,0.5c-3.2,0.4-6.3,0.8-9.5,1.1c-2.5,0.2-5,0.2-7.5,0.6
			c-5.2,0.7-10.5,0.2-15.8,0.4c-5,0.2-10,0.4-14.9,0.5c-3.1,0.1-6.2-0.1-9.3-0.1c-0.7,0-1.4,0-2.1-0.1c-1.8-0.1-3.6-0.1-5.4-0.3
			c-1.5-0.1-2.9-2-3-3.8c-0.3-8.7-0.6-17.4-0.9-26.1c-0.1-3.6-0.4-7.2-0.6-10.8c-0.1-2.3-0.3-4.5-0.4-6.8c-0.1-3.2-0.3-6.3-0.3-9.4
			c-0.1-4.3-0.1-8.6-0.1-12.9c-0.1-0.6,0-1.2,0.3-1.8c0.5-0.7,1.1-1.2,1.9-1.4c5.7-0.4,11.5-0.6,17.2-0.9c4.6-0.2,9.3-0.4,13.9-0.8
			c8.8-0.8,17.7-0.7,26.6-0.7c2.8,0,5.6,0.1,8.4,0.2c0.4,0,0.7,0,1.1,0.2c0.3,0.1,0.7,0.3,0.9,0.6c0.3,0.3,0.5,0.6,0.6,0.9
			c0.1,0.3,0.2,0.7,0.2,1.1c0.3,3.6,0.7,7.2,0.9,10.9c0.2,3.2,0.1,6.5,0.1,9.7c0,4.2-0.2,8.4-0.2,12.6c0,6.1,0.1,12.2,0.2,18.3
			c0.1,2.6,0.4,5.2,0.5,7.8c0.2,2.9,0.2,5.9,0.4,8.8C102,156.8,102,157.1,101.9,157.4z M82.4,123.6c0.3,0.1,0.6,0.1,0.8,0.1
			c4.3-0.2,8.6-0.5,12.9-0.7c0.1-0.1,0.3-0.1,0.4-0.3c0.1-0.1,0.2-0.2,0.2-0.4c0.1-3,0.1-6,0.1-9c0.1-4.2,0.2-8.4,0.2-12.6
			c0-3.4,0-6.7,0-10.1c0-0.7-0.3-0.8-0.9-0.9c-3-0.1-6-0.2-8.9-0.2c-6.3,0.1-12.6,0.2-18.9,0.4c-4.2,0.1-8.3,0.6-12.4,0.8
			c-7.2,0.4-14.4,0.8-21.6,1.1c-1.6,0.1-1.6,0.1-1.5,1.6c0.1,5.6,0.2,11.1,0.4,16.7c0.2,4.8,0.5,9.6,0.7,14.4c0,0.8,0.4,1,1.1,1
			c2.6-0.1,5.1-0.1,7.7-0.1l10.1-0.2c0.6,0,1-0.1,1-0.8c0.1-4.2,0.3-8.4,0.4-12.6c0-0.4,0-0.8,0-1.4c-0.2,0.1-0.3,0.2-0.5,0.3
			c-0.9,0.9-1.8,1.9-2.7,2.8c-1.6,1.7-3.2,3.3-4.8,5c-0.9,0.8-1.8,1.6-2.7,2.4c-0.3,0.2-0.7,0.3-1.1,0.3c-0.4,0-0.8,0-1.2-0.2
			c-0.4-0.1-0.7-0.4-1-0.7c-0.3-0.3-0.5-0.6-0.6-1c0-0.2,0-0.5,0.1-0.7c0.6-0.8,1.2-1.6,1.9-2.3c1.4-1.5,3-2.9,4.4-4.4
			c2.2-2.2,4.3-4.5,6.5-6.7c0.5-0.5,1.1-1,1.5-1.6c0.9-1.1,3.4-1.2,4.1,0.1c0.4,0.6,0.7,1.3,0.7,2c0.1,1.8,0,3.6,0,5.4
			c-0.2,4.3-0.4,8.6-0.7,13c0,0.5,0.1,0.7,0.7,0.7c1-0.1,2.1-0.1,3.1-0.2c4.6-0.2,9.1-0.4,13.7-0.7c0.2,0,0.3-0.1,0.5-0.1
			c0.2-0.1,0.3-0.2,0.4-0.3c0.9-1.4,1.8-2.9,2.7-4.4c1.2-2,2.4-3.9,3.5-5.9c1-1.6,1.6-3.5,1.5-5.4c-0.1-1.3-0.4-2.4-1.9-2.7
			c-0.8-0.2-1.6-0.2-2.4-0.2c-2,0.2-3.9,1.1-5.4,2.4c-1.4,1.2-2.2,3.1-2.9,4.8c-0.6,1.4-1,2.9-1.6,4.4c-0.1,0.2-0.3,0.4-0.5,0.6
			c-0.2,0.1-0.4,0.2-0.7,0.3c-0.3,0-0.6-0.1-0.8-0.3c-0.2-0.2-0.5-0.4-0.6-0.6c-0.7-2.1-0.6-4.5,0.3-6.6c1.5-4.1,4-7.3,8.2-9.1
			c1.6-0.6,3.4-0.9,5.2-0.8c1.7,0.2,3.4,0.9,4.7,2.1c0.9,0.6,1.6,1.4,2.1,2.3c0.5,0.9,0.9,1.9,1,3c0.1,2.4,0.2,4.7-1.1,6.8
			c-1,1.6-1.7,3.3-2.6,5C84.1,120.7,83.3,122.1,82.4,123.6L82.4,123.6z M70.3,147.9c0.1,0.1,0.3,0.1,0.4,0.1l14.4-1
			c1.3-0.1,2.6-0.6,3.9,0.3c0.4,0.3,0.8,0.6,1.1,1c0.3,0.4,0.5,0.9,0.6,1.4c0,0.6-0.2,0.9-0.8,0.9c-0.8,0.1-1.6,0.2-2.4,0.2l-12.6,1
			c-2.3,0.2-4.6,0.4-7,0.6c-1.5,0.1-3.1-1.2-3-2.5c0-1.1,0.2-2.2,0.6-3.3c1-2.6,2.1-5.2,3.3-7.8c1.5-3.1,3.1-6.2,4.6-9.3
			c0.2-0.5,0.4-1.1,0.5-1.6c-0.5-0.1-1.1-0.1-1.6-0.1c-4.5,0.2-9,0.4-13.4,0.6c-0.7,0-1,0.2-1,0.9c0,1-0.2,2.1-0.2,3.2
			c-0.2,3.9-0.5,7.8-0.7,11.6c-0.1,2.4-0.1,4.9-0.3,7.3c0,0.6-0.3,1.5-0.7,1.6c-0.3,0.1-0.7,0.2-1,0.1s-0.7-0.2-1-0.3
			c-0.5-0.4-1-0.9-1.3-1.5c-0.3-0.6-0.4-1.3-0.4-1.9c0.2-4.8,0.4-9.7,0.6-14.5c0.1-1.7,0.2-3.3,0.3-5c0.1-0.8-0.2-1.1-1-1
			c-1.5,0.1-2.9,0.1-4.4,0.1l-13,0.3c-0.5,0-0.8,0.1-0.8,0.8c0,3.6,0,7.2,0.1,10.9c0.2,5.3,0.5,10.7,0.7,16c0,0.8,0.4,1,1.1,1
			c7.6,0,15.2,0.3,22.8,0c9.9-0.4,19.9,0,29.8-1c2.8-0.3,5.5-0.5,8.3-0.7c0.8-0.1,1.1-0.4,1-1.2c-0.1-0.9-0.2-1.7-0.2-2.6
			c-0.1-2.8-0.2-5.7-0.3-8.6c-0.1-1.5-0.4-3-0.5-4.6c-0.1-3.9-0.1-7.7-0.1-11.6c0-1-0.1-1.1-1.1-1.1c-2.4,0.1-4.8,0.3-7.2,0.4
			c-2.4,0.1-4.7,0.2-7.1,0.3c-0.3,0-0.7,0.1-1,0.2c-0.3,0.2-0.5,0.4-0.6,0.8c-0.5,1.1-1.1,2.2-1.6,3.3c-0.4,0.8-1,1.5-1.4,2.4
			c-1.5,3.1-3,6.1-4.4,9.2C71.7,144.7,71,146.3,70.3,147.9L70.3,147.9z"/>
		<path d="M111.8,159.3c-0.7-0.1-1.3-0.3-1.8-0.7c-0.5-0.4-0.9-0.9-1.2-1.5c-0.2-0.4-0.3-0.9-0.3-1.4c0.1-0.5,0.2-0.9,0.6-1.3
			c0.9-1,2-0.6,3-0.4c0.5,0.1,0.9,0.3,1.3,0.7c0.4,0.3,0.6,0.7,0.8,1.2c0.1,0.4,0.1,0.8,0,1.2c-0.1,0.4-0.2,0.8-0.4,1.1
			c-0.2,0.3-0.5,0.6-0.8,0.8C112.6,159.1,112.2,159.2,111.8,159.3z"/>
		<path d="M30.7,54.5c-0.1-0.4,0-0.8,0.1-1.1c0.1-0.4,0.4-0.7,0.7-0.9c0.3-0.2,0.7-0.4,1-0.5c0.4-0.1,0.8,0,1.1,0.1
			c1.1,0.3,2.1,1,2.8,2c0.2,0.2,0.3,0.5,0.3,0.8c0,0.6-0.1,1.2-0.4,1.8c-0.3,0.6-0.7,1-1.2,1.4c-0.6,0.2-1.3,0.1-1.9-0.1
			c-0.6-0.2-1.1-0.6-1.5-1.1c-0.3-0.3-0.6-0.7-0.8-1.1C30.7,55.5,30.7,55,30.7,54.5z"/>
		<path d="M45,53.7c0-2.1,1.4-3,2.9-2.6c1.2,0.3,2.2,0.7,2.6,2c0.1,0.5,0.1,1,0,1.5c-0.1,0.5-0.4,0.9-0.8,1.3
			c-0.9,0.7-2,1.3-3.1,0.6c-0.5-0.3-0.9-0.7-1.1-1.1C45.1,54.8,45,54.2,45,53.7z"/>
		<path d="M59.7,52.4c0-0.3,0.1-0.6,0.2-0.8c0.1-0.3,0.3-0.5,0.5-0.7c0.2-0.2,0.4-0.4,0.7-0.5c0.3-0.1,0.5-0.2,0.8-0.1
			c1.3,0,3,1.4,3,2.6c0,0.6-0.2,1.3-0.6,1.8c-0.4,0.5-1,0.8-1.7,0.8c-0.8,0-1.5-0.4-2-1C59.9,53.9,59.6,53.1,59.7,52.4z"/>
	</g>
</g>
</svg>
