<svg width="368" height="32" viewBox="0 0 368 32" fill="none" xmlns="http://www.w3.org/2000/svg">
<path fill-rule="evenodd" clip-rule="evenodd" d="M0 0H9.99332V10.6548H10.0682L15.3121 0H26.092L19.2076 11.6862L27.0584 24.8177H15.9938L10.0682 13.6835H9.99332V24.8177H0V0ZM38.4824 12.2672C38.4824 11.4101 38.018 10.8945 36.8044 10.8945C35.7331 10.8945 35.1638 11.2358 35.0589 12.6812H27.9198C28.2044 8.04012 32.6317 7.04508 37.164 7.04508C44.0484 7.04508 46.2658 9.14409 46.2658 13.1605V24.8104H38.6997L38.4824 23.1617C37.2314 24.745 35.3436 25.3261 33.3809 25.3261C29.7401 25.3261 27.1706 23.4667 27.1706 20.0676C27.1706 15.8043 30.7365 14.0539 37.4486 14.0539H38.4824V12.2672ZM38.4824 17.2859H37.3063C35.0215 17.2859 34.5195 18.3173 34.5195 19.276C34.5195 20.3727 35.2012 21.0627 36.5197 21.0627C38.018 21.0627 38.4824 20.133 38.4824 18.724V17.2859ZM57.4354 7.56081H49.0152V24.8104H57.6601V15.768C57.6601 14.6713 58.2295 13.6036 59.8701 13.6036C61.4058 13.6036 62.477 13.8433 63.4733 14.083V7.82954C62.6493 7.42281 61.9002 7.35018 61.1885 7.35018C60.0798 7.35018 58.9037 7.90217 57.6526 9.44919L57.4354 7.56081ZM66.08 12.6521H63.7577V7.56075H66.08V4.77902L74.7174 1.88835V7.56075H78.6054V12.6521H74.7174V17.9468C74.7174 19.2542 75.1444 19.6972 76.1782 19.6972C76.785 19.6972 77.4967 19.6972 78.2833 19.4938V24.5779C76.3205 24.9919 74.253 25.3333 72.5375 25.3333C69.1814 25.3333 66.08 24.3383 66.08 20.4889V12.6521ZM88.9888 10.8945C90.2023 10.8945 90.6668 11.4101 90.6668 12.2672V14.0539H89.633C82.9209 14.0539 79.355 15.8043 79.355 20.0676C79.355 23.4667 81.9245 25.3261 85.5653 25.3261C87.528 25.3261 89.4158 24.745 90.6668 23.1617L90.884 24.8104H98.4502V13.1605C98.4502 9.14409 96.2328 7.04508 89.3484 7.04508C84.8161 7.04508 80.3888 8.04012 80.1041 12.6812H87.2433C87.3482 11.2358 87.9175 10.8945 88.9888 10.8945ZM89.4907 17.2859H90.6668V18.724C90.6668 20.133 90.2024 21.0627 88.7041 21.0627C87.3856 21.0627 86.7039 20.3727 86.7039 19.276C86.7039 18.3173 87.2058 17.2859 89.4907 17.2859Z" fill="white"/>
<path fill-rule="evenodd" clip-rule="evenodd" d="M114.31 0H129.292C135.502 0 138.431 3.47171 138.431 8.14908C138.431 13.0952 135.075 16.4652 127.869 16.4652H124.513V24.8177H114.31V0ZM125.007 10.8291C127.644 10.8291 128.648 9.89946 128.648 8.14908C128.648 6.3987 127.794 5.63609 125.576 5.63609H124.505V10.8291H125.007ZM149.465 7.04508C156.747 7.04508 160.425 10.7202 160.425 16.1892C160.425 21.6582 156.747 25.3333 149.465 25.3333C142.184 25.3333 138.513 21.6582 138.513 16.1892C138.513 10.7202 142.184 7.04508 149.465 7.04508ZM149.465 20.6559C150.859 20.6559 151.503 19.6246 151.503 16.1892C151.503 12.7538 150.859 11.7225 149.465 11.7225C148.072 11.7225 147.435 12.7538 147.435 16.1892C147.435 19.6246 148.072 20.6559 149.465 20.6559ZM169.737 25.3261C171.699 25.3261 173.805 24.7813 175.303 22.8203L175.445 24.8177H183.581V0H174.943V9.14411C173.512 7.5971 171.625 7.04511 169.624 7.04511C165.736 7.04511 162.275 9.44916 162.275 15.9786C162.275 22.094 165.384 25.3261 169.737 25.3261ZM172.951 11.9258C173.917 11.9258 174.591 12.5141 174.808 13.5092C174.951 14.2282 174.951 14.6785 174.943 16.1892C174.943 17.9759 174.831 19.0073 174.584 19.5229C174.336 20.0386 173.947 20.4526 172.98 20.4526C171.13 20.4526 170.913 18.5279 170.913 16.1892C170.913 13.4365 171.168 11.9258 172.951 11.9258ZM197.013 12.2672C197.013 11.4101 196.548 10.8945 195.335 10.8945C194.263 10.8945 193.694 11.2358 193.589 12.6812H186.45C186.735 8.04012 191.162 7.04508 195.694 7.04508C202.579 7.04508 204.796 9.14409 204.796 13.1605V24.8104H197.23L197.013 23.1617C195.762 24.745 193.874 25.3261 191.911 25.3261C188.27 25.3261 185.701 23.4667 185.701 20.0676C185.701 15.8043 189.267 14.0539 195.979 14.0539H197.013V12.2672ZM197.013 17.2859H195.836C193.552 17.2859 193.05 18.3173 193.05 19.276C193.05 20.3727 193.731 21.0627 195.05 21.0627C196.548 21.0627 197.013 20.133 197.013 18.724V17.2859ZM215.965 7.56081H207.553V24.8104H216.19V15.768C216.19 14.6713 216.759 13.6036 218.4 13.6036C219.936 13.6036 221.007 13.8433 222.003 14.083V7.82954C221.179 7.42281 220.43 7.35018 219.718 7.35018C218.61 7.35018 217.434 7.90217 216.183 9.44919L215.965 7.56081ZM243.945 24.8177H235.525L235.308 22.203H235.233C233.772 24.6797 231.629 25.3333 229.592 25.3333C225.988 25.3333 223.381 23.612 223.381 19.0436V7.56079H232.019V18.2519C232.019 19.5229 232.551 20.242 233.592 20.242C234.558 20.242 235.308 19.69 235.308 18.3173V7.56079H243.945V24.8177ZM254.942 7.56076H246.522V24.8104H255.159V14.0539C255.159 12.6812 255.909 12.1292 256.875 12.1292C257.909 12.1292 258.448 12.8555 258.448 14.1265V24.8176H267.086V13.3348C267.086 8.76642 264.479 7.04508 260.875 7.04508C258.838 7.04508 256.695 7.69875 255.234 10.1754H255.159L254.942 7.56076ZM269.662 0H278.292V14.2282H278.367L281.581 7.56078H290.93L285.933 14.9545L291.29 24.8177H281.941L278.375 15.8115H278.3V24.8177H269.662V0ZM313.704 16.1892C313.704 10.7202 310.025 7.04508 302.744 7.04508C295.462 7.04508 291.792 10.7202 291.792 16.1892C291.792 21.6582 295.462 25.3333 302.744 25.3333C310.025 25.3333 313.704 21.6582 313.704 16.1892ZM304.782 16.1892C304.782 19.6246 304.137 20.6559 302.744 20.6559C301.351 20.6559 300.714 19.6246 300.714 16.1892C300.714 12.7538 301.351 11.7225 302.744 11.7225C304.137 11.7225 304.782 12.7538 304.782 16.1892ZM314.632 7.56079H322.91L324.341 18.7676H324.416L326.559 7.56079H336.125L338.125 18.7676H338.2L340.058 7.56079H348.336L343.908 24.8177H333.346L331.203 13.8215H331.128L328.986 24.8177H318.423L314.632 7.56079ZM358.539 10.8945C359.752 10.8945 360.217 11.4101 360.217 12.2672V14.0539H359.183C352.471 14.0539 348.905 15.8043 348.905 20.0676C348.905 23.4667 351.474 25.3261 355.115 25.3261C357.078 25.3261 358.966 24.745 360.217 23.1617L360.434 24.8104H368V13.1605C368 9.14409 365.783 7.04508 358.898 7.04508C354.366 7.04508 349.939 8.04012 349.654 12.6812H356.793C356.898 11.2358 357.467 10.8945 358.539 10.8945ZM359.041 17.2859H360.217V18.724C360.217 20.133 359.752 21.0627 358.254 21.0627C356.936 21.0627 356.254 20.3727 356.254 19.276C356.254 18.3173 356.756 17.2859 359.041 17.2859Z" fill="white"/>
</svg>
